<svg xmlns="http://www.w3.org/2000/svg" version="1.1" xmlns:xlink="http://www.w3.org/1999/xlink" xmlns:svgjs="http://svgjs.dev/svgjs" viewBox="0 0 51.21502004421266 11.181662491141834"><g transform="matrix(0.6825834191768794,0,0,0.6825834191768794,18.70143890668433,4.404477372621829)"><g clip-path="url(#SvgjsClipPath28027)"><g clip-path="url(#SvgjsClipPath2802510cce2ae-5941-42b0-a1fa-6913a6901a5c)"><path d=" M -2.3497969229826605 0.9200193831070791 C -2.5909035783166825 0.9198725534282011 -2.8298333896557217 0.9656338618688387 -3.0538230148425054 1.0548587945614287 L -3.5152599172461 0.17764167534825703 C -3.3247737403231827 0.281583783449465 -3.113208411477972 0.3410052309509972 -2.8964596384951022 0.3514414585095065 C -2.63743404222501 0.3514414585095065 -2.5442944036132022 -0.04759797358225892 -2.5442944036132022 -0.3894143597295151 C -2.5442944036132022 -0.7312307458767712 -2.6377384201289686 -1.1311833116804169 -2.896764016399061 -1.1311833116804169 C -3.3040890223210653 -1.1187840799229756 -3.682396940245834 -0.9173649326638043 -3.9200825295131114 -0.5863468635917365 L -3.925561331784394 -0.597304468134302 L -3.9353014247111187 -0.6694420313728592 C -3.8734641279291964 -0.7588798772736061 -3.8695380488257314 -0.8761863620013616 -3.9252569538804316 -0.9695586446775737 C -4.0038517450057185 -1.1015105608257718 -4.17428444139451 -1.1451728876739784 -4.30664246754251 -1.0672639518487839 L -4.372996850605823 -1.0279992022379238 L -4.372996850605823 -1.0279992022379238 C -4.785221013447877 -1.1751812771694907 -5.219459036357766 -1.2512424051454107 -5.65716722741372 -1.2529344732644792 C -6.09663393677675 -1.2544634937946424 -6.532017648521906 -1.1685869536928175 -6.9379894472780625 -1.0003008129775506 L -6.961426545882996 -0.9832556503557808 L -7.424994093614314 -0.18608991988413037 L -8.706729447190533 -0.18608991988413037 L -8.706729447190533 -1.038348050972569 L -9.193734093526786 -1.038348050972569 L -9.193734093526786 -0.8770277618736861 C -9.985116643823192 -0.8660701573311205 -10.513821063001984 -0.6898353509381897 -10.802066938052253 -0.3531933891582564 C -10.955194323756265 -0.18369768696662447 -11.032099477254931 0.04118662455164834 -11.014827092920402 0.26895504653630375 L -11.0087395348412 0.33135251684813616 L -10.065168032564713 0.33135251684813616 L -10.394200546745642 1.0116371321990865 L -10.438944098627786 1.1053855266188146 C -10.987379067064262 0.9318444017776317 -11.58568885039704 1.030107618721383 -12.049809190501305 1.3699454425676467 C -12.51392953060557 1.7097832664139092 -12.788271764624088 2.2504926109508583 -12.788437139296235 2.82572943980162 C -12.78846772165969 2.8867276300920377 -12.785318209022945 2.947685939189781 -12.779001424273385 3.00835618217853 C -12.785409452284044 2.947690422282931 -12.788660533894832 2.8867326420806823 -12.788741517200195 2.82572943980162 C -12.78944005980412 2.2500372383392246 -12.515110920674239 1.70864098849872 -12.050473847666378 1.368737488703059 C -11.58583677465852 1.0288339889073976 -10.986790403750952 0.9313156756550705 -10.438335342820082 1.1062986603306257 L -10.393591790937723 1.0149852891426485 C -11.108727749701538 0.781049059273945 -11.894555487213719 0.9902312914887326 -12.39874657350812 1.5487444494926386 C -12.902937659802523 2.1072576074965443 -13.030900909369329 2.910319153131856 -12.725263581770578 3.5978738223331623 C -12.419626254171828 4.285428491534469 -11.737728905279099 4.728484294894432 -10.985302436236267 4.72839571745656 C -10.216256992020769 4.733018888157909 -9.52133833116943 4.270502413312995 -9.228737552482203 3.559280188345598 L -7.306591088973812 3.559280188345598 L -7.306591088973812 3.5550188976901556 C -7.2041481231812385 3.541463697847579 -7.111072358236803 3.4883711840412452 -7.047261114799759 3.4070912363655195 L -6.1569557457163 3.4070912363655195 C -5.533717051303404 3.408101634828645 -5.027429639677153 2.9041297696101545 -5.025583076696399 2.28089299171294 C -5.025695005448012 2.2311138952801883 -5.029050269588328 2.1813949812009286 -5.035627547527078 2.132052196676467 L -4.03757240044173 0.33439629588773756 L -3.8929928960606546 0.33439629588773756 L -3.413597697323409 1.2429643392088054 C -4.19922887756983 1.7684479454443676 -4.4816810543192265 2.7899471232162343 -4.077610488302195 3.6443921767313183 C -3.67353992228516 4.498837230246401 -2.704767235964699 4.9286270446656255 -1.8001366069859746 4.6547789172094065 C -0.8955059780072538 4.380930789753186 -0.32774864588510333 3.486005421825438 -0.4654039983023299 2.550911642705607 C -0.6030593507195583 1.6158178635857767 -1.4046265654754073 0.9224710509677154 -2.3497969229826605 0.920932516818959 Z M -2.3497969229826605 4.526288789227015 C -3.0945286176462012 4.526941567807238 -3.753076599004199 4.043026324437022 -3.974929379844575 3.332106450759479 C -4.1967821606849505 2.6211865770819367 -3.93033911470261 1.848614567645661 -3.3174142796719988 1.4255910815848998 L -3.1143942177305757 1.8103247521905372 C -3.6418124121844837 2.2084575309857293 -3.7750577720452405 2.944889035028149 -3.4205815574922998 3.502586331694018 C -3.066105342939359 4.060283628359887 -2.342758181450371 4.2522590695924185 -1.7583867663794432 3.9437307716354812 C -1.1740153513085207 3.635202473678544 -0.9245507677604063 2.929615407735745 -1.1851368064469945 2.322347280930269 C -1.4457228451335862 1.7150791541247938 -2.1289888647020465 1.4097379800691539 -2.755228291057593 1.620697318023361 L -2.9585527309029747 1.2353548916098018 C -2.321091788851044 0.9911261420548836 -1.5993791989396442 1.1515295414575484 -1.1253822476851507 1.6427840833727758 C -0.651385296430659 2.134038625288003 -0.51688295291987 2.861023791963814 -0.7837424737720049 3.48934706137333 C -1.0506019946241416 4.117670330782847 -1.6671519679240276 4.525670874165397 -2.3497969229826605 4.525680033419095 Z M -3.977609953361579 0.17368476259677523 L -3.977609953361579 0.18007669857993847 L -7.4743033140558595 0.18007669857993847 L -7.378728652212371 0.011755717689972078 L -7.302634176222331 -0.11699613568517453 L -7.248454909317424 -0.1973519023306558 L -6.856111791112781 -0.8669832910430006 C -6.475430515094657 -1.022004826036531 -6.068201869764079 -1.1014035565808027 -5.657167227413723 -1.1007455212844013 C -5.281029299263419 -1.0988417538501598 -4.907395940690895 -1.0394094146706294 -4.549231656998751 -0.9245107148914703 L -5.0852411458725895 -0.6055226715412263 C -5.217709996902474 -0.5265592802915275 -5.2612791373280166 -0.35527809699361035 -5.18264207513984 -0.22261526835934897 C -5.103787285853143 -0.09000099266414963 -4.932371586442468 -0.046397635103405666 -4.799734671957962 -0.125214339092099 L -4.294467351384103 -0.4253309523968136 L -4.228721724128709 -0.46429132410371377 L -4.119450056607013 -0.5294281955511874 L -4.07409774891695 -0.5565178290036412 L -4.054008807255579 -0.4043288770235629 L -4.006525854237795 -0.04303230502285671 Z M -9.130423489503073 0.26043246522541996 L -9.130423489503073 0.26043246522541996 Z M -9.193734093526786 -0.7236212982777667 L -9.193734093526786 0.17916356486805762 L -10.870551966443287 0.17916356486805762 C -10.85981388918951 0.01599372664491927 -10.793910599537597 -0.13867506877594127 -10.68366393341175 -0.25944499473852967 C -10.42829087198918 -0.5549959394838402 -9.924241063031161 -0.7138812053510422 -9.193734093526786 -0.7245344319896475 Z M -10.75671463036219 2.82572943980162 C -10.756450587789377 2.9478842643226244 -10.852275101598813 3.0486603318242613 -10.97428834392956 3.0545458707271242 C -11.096301586260308 3.060431409629988 -11.20138088506892 2.969346316503837 -11.21287544812621 2.8477332173230296 C -11.224370011183499 2.726120118142222 -11.138217359175474 2.6169602638921683 -11.017262116152088 2.599881035063185 L -11.099748528125286 2.770637039184832 C -11.126278314538858 2.83312193008297 -11.099079811706238 2.9054292320161386 -11.037945974042115 2.934939315888581 C -10.976812136377992 2.9644493997610235 -10.903278156529176 2.940766953164771 -10.870856344347247 2.881126218322369 L -10.788369932374046 2.7103702142007213 C -10.767613277086642 2.745267183840772 -10.756675753342147 2.785126044409658 -10.75671463036219 2.82572943980162 Z M -10.942080773873924 2.4461701935633053 C -10.95592455161956 2.4445831272563723 -10.96984613838657 2.443770187883117 -10.983780546716465 2.4437351703316246 C -11.165596407423715 2.443591232180504 -11.322233719703574 2.5718111178836516 -11.358011146298391 2.7500721727138107 C -11.39378857289321 2.9283332275439706 -11.298756939253144 3.107063681847894 -11.13096597603378 3.177086682246525 C -10.963175012814416 3.2471096826451573 -10.769284911646125 3.188952865702203 -10.667732741518305 3.038141113291327 C -10.566180571390486 2.887329360880451 -10.585206492724943 2.6858011965823536 -10.713188590095887 2.5566593727008424 L -10.644399183800891 2.4136017578395688 C -10.437350865779617 2.584989406221169 -10.390860233207611 2.8839845841217553 -10.536093453329574 3.1101483384817747 C -10.681326673451535 3.336312092841794 -10.97255693732312 3.4184365637992125 -11.214550697702684 3.3014675424706086 C -11.456544458082249 3.184498521142004 -11.573109763587679 2.905263808262008 -11.486104123886427 2.6509554311420453 C -11.399098484185176 2.3966470540220817 -11.135915702570722 2.2473342321130865 -10.87298698967497 2.3031125787020317 Z M -10.827634681984906 2.2090598063783426 C -10.878703057128709 2.1963052710024424 -10.931143518308298 2.1898652143663524 -10.983780546716467 2.1898839984288534 C -11.294576218376292 2.1900462834876713 -11.559526732390506 2.4152671391078755 -11.609739663812281 2.7219797690678353 C -11.659952595234055 3.028692399027795 -11.48065220238864 3.3266430288445026 -11.186133331067337 3.4259033446537392 C -10.891614459746036 3.525163660462976 -10.568542728500951 3.3965251547463895 -10.422859870733756 3.1219883069249965 C -10.277177012966561 2.8474514591036035 -10.35175191149006 2.5078019438781247 -10.599046876110828 2.3195489855158806 L -10.477295714526765 2.064784679901229 C -10.081742755410936 2.3306140243705986 -9.95914870759866 2.857092205916067 -10.196579463210519 3.270316140527661 C -10.434010218822376 3.6835400751392555 -10.95059309476003 3.8427591333276645 -11.379452620718451 3.6348964602932226 C -11.808312146676872 3.4270337872587815 -12.003371962636228 2.9228907079644957 -11.82610122475504 2.4805079897923648 C -11.648830486873853 2.038125271620233 -11.159610421545178 1.808185488454667 -10.705883520400842 1.9539911228597322 Z M -10.729929374813695 1.8407625425865535 C -11.236112194526395 1.7098818931215007 -11.759033009845886 1.9842726100912664 -11.938952258843035 2.475169600525101 C -12.118871507840181 2.9660665909589357 -11.89711772442836 3.5133888947216514 -11.426244806948674 3.7406101238373815 C -10.955371889468989 3.9678313529531106 -10.38893097023779 3.8008549184657925 -10.11660094933571 3.3545510409426766 C -9.844270928433634 2.9082471634195617 -9.95485832142133 2.3281550386964556 -10.372285337660513 2.013344814131961 C -10.340540611650793 1.9983025801511556 -10.312328684335057 1.9767287533802984 -10.289494547783349 1.9500342101082506 C -9.843613046606064 2.30384995066602 -9.735077186715053 2.936350275147724 -10.037496076725839 3.4185729481144715 C -10.339914966736627 3.90079562108122 -10.956563386516418 4.078507240664264 -11.469229875311648 3.831183641658985 C -11.981896364106875 3.583860042653706 -12.226610414051258 2.9906048470493527 -12.037406757074036 2.453764211902386 C -11.848203100096816 1.9169235767554185 -11.285596360037792 1.6081998339174277 -10.731146886429535 1.736969677336141 C -10.738475468820457 1.7711685664982675 -10.738579142405834 1.8065212591122168 -10.731451264333497 1.840762542586553 Z M -9.013542374382371 0.25951933151353934 L -9.040936385738785 0.21021011107199405 L -9.054937769320953 0.21721080286307726 L -9.042458275258587 0.2096013552640732 L -9.014455508094253 0.2595193315135389 Z M -8.857396509650812 -0.8861590989924903 L -8.857396509650812 -0.033900967904051615 L -7.512959307858799 -0.033900967904051615 L -7.648103097217109 0.17916356486805807 L -7.648103097217109 0.17916356486805807 L -9.038501362507104 0.18464236713934068 L -9.038501362507104 -0.8861590989924908 Z M -4.228721724128707 -0.936077075241956 C -4.2140158703113535 -0.94491135754458 -4.197642825811364 -0.9506108350603996 -4.180630015303002 -0.9528178599597646 C -4.17516150917926 -0.9532928780921628 -4.169662114612896 -0.9532928780921628 -4.164193608489153 -0.9528178599597645 C -4.122037687117166 -0.9528415656427773 -4.082648331889223 -0.931833909521208 -4.059183231622901 -0.8968123256310958 C -4.057661702634263 -0.894855818466521 -4.056239478045445 -0.8928240690539229 -4.054921940967459 -0.8907247675518928 C -4.039222047219022 -0.8639305796743791 -4.033812296485323 -0.8323376353895757 -4.039703045769452 -0.8018464195955268 L -4.03970304576945 -0.7945413499004832 C -4.043236027812492 -0.7806523861097003 -4.0493260614050754 -0.7675433307493951 -4.057661342103101 -0.7558853560975431 C -4.066774927976075 -0.7416474176642317 -4.07880999180737 -0.7295086032826678 -4.092969178962479 -0.720273141334205 L -4.098143603329801 -0.716620606486683 L -4.132842684381258 -0.6959229090173923 L -4.25276757854156 -0.6243941015867553 L -4.341950304401886 -0.5717367242016483 L -4.8749160142361205 -0.2551837040830853 C -4.93518103799212 -0.21937770794022882 -5.013061987451488 -0.23920566676698285 -5.048867984598362 -0.2994706899264552 C -5.084673981745233 -0.35973571308592744 -5.064846024215977 -0.4376166628756306 -5.004581001653031 -0.4734226610265184 L -4.357777955407814 -0.8578519539241957 L -4.274074031818772 -0.9074655522697012 Z M -2.6958745997853573 -0.38819684811367394 C -2.6932191935278595 -0.24206176394925172 -2.7149241233004116 -0.09650500741768475 -2.760098337520951 0.042497885989945194 C -2.781709168702122 0.10154719935821843 -2.828278988008025 0.200165640241309 -2.8949377489752983 0.200165640241309 C -3.182060288139601 0.18360997896458575 -3.4554366124727576 0.07166708753505957 -3.671710159881618 -0.11790926939705493 L -3.6412723694856037 -0.05885995602878413 L -3.6805371190964635 -0.1179092693970547 C -3.765037528655057 -0.18431413622063397 -3.819765297942217 -0.28151065447462853 -3.832726071076541 -0.38819684811367394 L -3.832726071076541 -0.3881968481136737 L -3.857076303393354 -0.450898696329466 L -3.818724687494374 -0.3881968481136737 C -3.818724687494374 -0.6925747520738305 -3.240406669970076 -0.9762549585646965 -2.8943289931673775 -0.9762549585646965 C -2.7887098604932063 -0.9789943597003385 -2.6973964893051594 -0.7138812053510422 -2.6973964893051594 -0.389414359729515 Z M -2.3482750334628566 1.7083581543638855 C -1.7980894775332832 1.7075750074332177 -1.3289779469055372 2.106900009951569 -1.241893870109127 2.6501505256818065 C -1.1548097933127188 3.193401041412044 -1.4755984095416785 3.719348519305128 -1.9984612517275213 3.8905770436052496 C -2.5213240939133623 4.0618055679053695 -3.091083364701044 3.8274970978158898 -3.342216166474797 3.3379696980251143 C -3.5933489682485504 2.848442298234339 -3.4513228770557838 2.2489803100943977 -3.007253195536599 1.9241620882716364 C -2.9920186684467964 1.931133861206357 -2.975961445282783 1.9361453512384375 -2.959465864614856 1.9390766055656836 L -2.9311587195465574 1.993864628278512 C -3.370327215794884 2.3015429954556197 -3.494670063259461 2.8976072844293075 -3.2151441141664083 3.3552099390429113 C -2.9356181650733575 3.8128125936565143 -2.3485269193906824 3.974298350143192 -1.8742922478734805 3.724025654755221 C -1.4000575763562786 3.4737529593672516 -1.202064877825185 2.897946853430815 -1.4220986897339962 2.4089478070691 C -1.6421325016428057 1.919948760707386 -2.2043858147786946 1.6862288596013342 -2.706223448520003 1.8751572457340513 L -2.7348349714922584 1.8209779788291425 C -2.7283356057792503 1.8054333568657446 -2.7236378702526363 1.7891955318933228 -2.720833587910091 1.7725818920994765 C -2.6017733039412967 1.729837482222152 -2.476296391275344 1.7077066075517828 -2.3497969229826605 1.7071406427480451 Z M -2.5494688279805207 2.7170665280878445 L -2.4605904800241554 2.8850831310738503 C -2.4386092001648922 2.9267607443662804 -2.3953939613814352 2.9528772707855513 -2.3482750334628566 2.9529594036569664 C -2.3270986659446162 2.9530977290842575 -2.3062063858630477 2.9480835818646804 -2.287399452670824 2.9383492642668783 C -2.2575829300806607 2.9221491898535827 -2.235473254876137 2.8947095280494572 -2.225985106597527 2.8621297417915743 C -2.216496958318915 2.8295499555336923 -2.2204165898876855 2.794529828949978 -2.2368727206134444 2.7648538590095884 L -2.3254466906658475 2.5968372560235826 C -2.225697548083126 2.607534540816295 -2.144663678185303 2.6821806651005087 -2.125830444802281 2.7807181334476567 C -2.106997211419257 2.8792556017948048 -2.1547911559266453 2.978524281697866 -2.2435645205610477 3.0252534276285585 C -2.33233788519545 3.0719825735592527 -2.4412254810849188 3.0551890211451997 -2.5117947450335034 2.983884727209425 C -2.58236400898209 2.9125804332736482 -2.5980284228724972 2.803524676530862 -2.5503819616924037 2.715240260664083 Z M -2.627998327202242 2.5679213551473676 C -2.7504643904486414 2.69997148046288 -2.763569682589866 2.8997979218693484 -2.6593990098631135 3.0467116488881993 C -2.555228337136363 3.1936253759070503 -2.362321210333091 3.2473766158535513 -2.197187606523535 3.1755012714315463 C -2.032054002713979 3.103625927009542 -1.9399353717668237 2.9258155977266185 -1.9764685362155348 2.7494622588348454 C -2.0130017006642476 2.5731089199430723 -2.1681777144807555 2.4465278783005777 -2.3482750334628584 2.4461701935633053 C -2.3667278735167088 2.44630400246946 -2.385144303468106 2.4478302259460953 -2.4033674340796463 2.4507358621227073 L -2.4773312647419665 2.3104176483970758 C -2.2147324467459217 2.2443546394621245 -1.944171698227004 2.3848731542718085 -1.8471863683683711 2.637689898485224 C -1.7502010385097382 2.8905066426986386 -1.8573635057450844 3.1759269945649162 -2.096771284808808 3.3024433005742013 C -2.336179063872528 3.4289596065834855 -2.632364398639295 3.356690532197999 -2.7865966867034686 3.134126245572878 C -2.9408289747676406 2.9115619589477557 -2.9044900603291044 2.6088606954207183 -2.701962157864564 2.4291250309415373 Z M -2.749749488786305 2.3350722586178474 C -2.988527185488577 2.5308810282493663 -3.0518042479464995 2.8700879544302955 -2.8996832771357113 3.1388165776668897 C -2.747562306324923 3.407545200903485 -2.4241597254920197 3.5278618502627284 -2.1333870518882385 3.4239045754217683 C -1.8426143782844537 3.3199473005808082 -1.6687982518784672 3.0218646281497605 -1.7215330672693998 2.7176033885007786 C -1.7742678826603342 2.413342148851796 -2.0382600782621942 2.1911407850762137 -2.3470575218470184 2.1911015100446933 C -2.407333695991433 2.190991658804589 -2.467308669466945 2.1996034498677393 -2.5251185956637094 2.2166692539773463 L -2.6572186059824165 1.9658618611141774 C -2.2038441495816183 1.8008493455549799 -1.7000881281150573 2.014819919774352 -1.504053684645875 2.455669128667397 C -1.3080192411766944 2.8965183375604413 -1.4865653549191222 3.4138913374967172 -1.9127696233840847 3.6400051352847775 C -2.338973891849049 3.866118933072838 -2.8674762353381364 3.7238557659418827 -3.12258218618285 3.314345714964487 C -3.3776881370275653 2.9048356639870923 -3.2723919468343414 2.367745124016057 -2.8815451212010537 2.0848736215625987 Z M -2.9302455858346796 -1.053566946170577 C -3.259582477919569 -1.0392611846844495 -3.7758074030359943 -0.8073252218668102 -3.867120774224041 -0.5056867190422949 L -3.867120774224041 -0.5056867190422949 C -3.7758074030359943 -0.8073252218668102 -3.25927810001561 -1.03986994049237 -2.9302455858346796 -1.053566946170577 Z M -6.908769168497886 -0.9284676276429524 C -6.682657219201887 -1.0228514619770555 -6.446424483522892 -1.0908717827562215 -6.2047430766380485 -1.1311833116804162 C -6.446335325370185 -1.0907830360894102 -6.682535253981971 -1.0229763985631557 -6.908769168497885 -0.929076383450874 L -7.336724501465868 -0.19856941394649685 Z M -10.984389302524386 1.123039445048504 C -10.814322246247594 1.122904579113001 -10.645210160148496 1.1484561018306436 -10.48277451679805 1.1988295431345828 L -10.482774516798049 1.1988295431345828 L -10.673315084677107 1.5945208182827868 C -11.305534573601344 1.4331956829005674 -11.957197312400442 1.7768820237568324 -12.181116523602203 2.38973393762877 C -12.405035734803965 3.0025858515007062 -12.128439820684155 3.685432339609517 -11.541135606357793 3.969687579343476 C -10.953831392031432 4.253942819077435 -10.246687118759851 4.047226581666055 -9.904962338677315 3.4913925631324148 C -9.563237558594777 2.9355585445987735 -9.697989550329158 2.2112474741643044 -10.216748228736872 1.81549917655786 L -10.026512038761773 1.4213297909294573 L -9.982072864783591 1.33001641974141 L -9.937024934997488 1.2347461358018805 L -9.503590799758225 0.3334831621758567 L -9.205300453877271 0.3334831621758567 L -9.199212895798068 0.3334831621758567 L -9.194647227238665 0.3334831621758567 L -9.194647227238665 0.3276999820006141 L -9.205909209685192 0.33135251684813594 L -9.205909209685192 0.33135251684813594 L -8.947187991319058 0.7997901110428172 C -8.925703820751751 0.7708623374531196 -8.902423804853536 0.7433126243159298 -8.877485451312182 0.7173036990696147 L -8.877485451312182 0.7173036990696147 C -8.853388095306872 0.6911773084661204 -8.827883945735827 0.6663844299986486 -8.801086597418182 0.6430354905033351 L -8.973364491059632 0.33074376104021574 L -4.27011711906729 0.33074376104021574 L -5.111417645613162 1.8474588564736762 L -5.159813732342827 1.935728448622122 L -5.210949220208134 2.0270418198101696 C -5.197309356156459 2.078961707130989 -5.1878434678926535 2.1318892544124894 -5.182642075139839 2.1853183298694514 C -5.179598296100236 2.215756120265466 -5.178076406580437 2.248020178085243 -5.178076406580437 2.2799798580010595 C -5.178087762832775 2.3189434675845035 -5.180425486178592 2.35787164330016 -5.185077098371421 2.3965565952169827 L -5.1850770983715195 2.396556595217799 C -5.246256468016012 2.886187241204957 -5.662909761386861 3.253353979205216 -6.156346989908379 3.2524672611537593 L -6.959904656363194 3.2524672611537593 C -6.944432356798271 3.211135026694242 -6.936994108198431 3.1672286981535223 -6.937989447278063 3.1231066519706925 C -6.937361573233044 3.084404529138837 -6.943015243931767 3.0458567743748173 -6.954730231995872 3.008964937985634 L -6.156955745716301 3.008964937985634 C -5.9541558763556806 3.008498902810098 -5.7608371685440645 2.923045630482177 -5.623990035882068 2.7733764403204724 L -5.458104078223781 2.473564204919719 C -5.441039500026066 2.4097351724787703 -5.432543828146105 2.3439193047822116 -5.432840712195088 2.2778492126733383 C -5.432829424971724 1.876531310054401 -5.756562263874761 1.5503521272808702 -6.157868879428528 1.547342243168959 L -7.405818285664824 1.547342243168959 C -7.382559158550603 1.4715346607019357 -7.371262946044324 1.3925638659989514 -7.372336716229206 1.3132756350236015 L -7.372336716229206 1.303839920000837 L -6.157260123620261 1.303839920000837 C -5.714075021098207 1.3038466553351966 -5.326112633345586 1.6014342783732423 -5.211253598112093 2.0294768430418504 L -5.1601181102467875 1.9357284486221225 L -5.1601181102467875 1.9357284486221225 L -5.111722023517123 1.8501982576093183 C -5.242018047702215 1.5532674739718135 -5.488502262168683 1.3228487484839653 -5.793528528387875 1.2128309267167496 L -5.116287692076525 1.2128309267167496 C -4.998615399896666 1.21283092671675 -4.9032231593044155 1.1174386861245 -4.9032231593044155 0.9997663939446404 C -4.9032231593044155 0.8820941017647808 -4.998615399896666 0.7867018611725307 -5.116287692076525 0.7867018611725307 L -6.555995177808067 0.7867018611725307 C -6.6701488658859915 0.7911413079027823 -6.760089197905138 0.8855314614461134 -6.759015239749491 0.9997663939446404 C -6.7602808333586095 1.0562028690071783 -6.739288312241988 1.1108708927483757 -6.700574682189141 1.151955345924719 L -7.387859989331174 1.151955345924719 C -7.45900264390574 0.7375586738119881 -7.822486815352075 0.4374804276090509 -8.242857521555255 0.4461029866411155 C -8.446204915898747 0.44562395679382893 -8.643253573540754 0.5166218055560392 -8.799564707898382 0.6466880253508585 L -8.749342353744957 0.7361751291151446 C -8.609283530384197 0.613214737146512 -8.429232701980865 0.5454792692495849 -8.242857521555255 0.545634561236086 C -8.429258052476817 0.5453394079365728 -8.609356651239997 0.613092847134741 -8.749342353744956 0.7361751291151444 L -8.69851124378361 0.8274885003031913 C -8.574898093669514 0.7113543372638802 -8.411553312355672 0.6468875969053494 -8.241944387843375 0.6472967811587786 C -7.938751996672854 0.6513074100004301 -7.674995603184341 0.8559267129093244 -7.595750097735963 1.1486071889811564 C -7.589415396644904 1.1736687552261105 -7.584537185723837 1.19907610377333 -7.581139958345875 1.2247016649711984 C -7.577600195829944 1.2499229559521077 -7.575567402771757 1.2753328691794568 -7.575052400266673 1.3007961409612367 L -7.575052400266673 1.3154062803513231 C -7.575202316375933 1.3972902501899471 -7.590260975704371 1.4784626124603781 -7.619491574244847 1.5549516907679475 C -7.629536045075541 1.5802150567966595 -7.641406783329987 1.6057828007293125 -7.654495033200273 1.6310461667580058 C -7.668869141951977 1.6571594793274562 -7.684828089768667 1.6823685179168753 -7.702282364122017 1.706531886940123 L -7.690716003771532 1.7065318869401247 L -7.702282364122017 1.7065318869401247 C -7.792004777837354 1.8308339811690206 -7.921527051422581 1.920726305373693 -8.069362116297967 1.9612961925547758 L -8.01853100633662 2.0526095637428226 L -7.968308652183194 2.1393572663714675 C -7.747994924372081 2.0677125694379477 -7.566341008604517 1.9094659640505947 -7.4651719769370555 1.7010530846688419 L -6.156346989908382 1.7010530846688419 C -5.836950768277334 1.7010530846688419 -5.578028972384083 1.9599748805620922 -5.578028972384083 2.2793711021931395 C -5.578028972384083 2.5987673238241875 -5.836950768277334 2.8576891197174374 -6.156346989908382 2.8576891197174374 L -7.034477242833432 2.8576891197174374 C -7.070866916954696 2.8054561494494363 -7.121766417281193 2.765032845655835 -7.180883014638269 2.7414167604046575 L -7.177839235598667 2.7395904929808967 C -6.992844069710923 2.739584573041622 -6.826136806801134 2.62794628039655 -6.755688298588916 2.456890093348105 C -6.6852397903766985 2.2858339062996595 -6.72497584744137 2.089173117985026 -6.856311471389737 1.958888179028243 C -6.987647095338107 1.8286032400714618 -7.184620699930306 1.7904480440224815 -7.355105526869983 1.8622682028932862 C -7.525590353809662 1.934088361764091 -7.63588605277204 2.1016869258449935 -7.634406091538902 2.2866761718881836 C -7.629545184978404 2.4635869135779167 -7.529093903223345 2.6239360593957395 -7.372032338325248 2.705500167737358 L -7.663321992415117 2.705500167737358 L -7.967699896375274 2.150923626721954 C -8.000861138468604 2.161075830463724 -8.034607576930398 2.1692075023822275 -8.06875336049005 2.175273859038767 C -8.104335578687571 2.1837756129771195 -8.140428294088473 2.189977459848823 -8.176807516395904 2.1938409111803363 L -7.894649199424837 2.705500167737359 L -9.085375559716969 2.705500167737359 C -9.125955929262423 2.1116073322986217 -9.440346941932535 1.5703373670146894 -9.936111801285607 1.2408336938810838 L -9.980550975263789 1.3321470650691312 L -9.980550975263789 1.3321470650691312 L -10.024990149241972 1.4292436164324218 C -9.59517396551372 1.7187187420178416 -9.323280470840404 2.190600013764918 -9.288395621658394 2.70763081306508 L -9.345314289698944 2.70763081306508 L -9.345314289698944 2.8019879632927287 C -9.426471336462196 2.8068936878064843 -9.506317714873905 2.8247743439759025 -9.581815921075984 2.8549497185817962 L -9.619254403263083 2.867733590548122 L -9.619254403263083 3.38974169583979 L -9.581815921075984 3.4025255678061166 C -9.524614088078637 3.425024567543063 -9.464944774928249 3.440657110200613 -9.404059225163252 3.4490953871120213 C -9.39797166708405 3.432963358202133 -9.392797242716727 3.416831329292245 -9.387014062541484 3.4003949224783963 C -9.447248605917531 3.3929881215757005 -9.5062770601035 3.377847374228172 -9.562640113126495 3.3553469926922928 C -9.505854312595002 3.37784233884879 -9.44642413661265 3.392981178858064 -9.385796550925644 3.4003949224783963 C -9.37970899284644 3.3842628935685077 -9.368751388303876 3.3675221088506992 -9.363272586032592 3.3507813241328908 C -9.409214823499436 3.346933006524554 -9.454394632452853 3.33668815188659 -9.497503241679022 3.3203435337368745 L -9.497503241679022 2.935001107323317 C -9.443948733458646 2.9139275714113504 -9.387031679608148 2.9026885154879727 -9.329486638693016 2.9018239157916597 C -9.314696823990516 2.898636499616443 -9.299522869589149 2.8976112324271623 -9.284438708906912 2.898780136752058 L -9.284438708906912 2.898780136752058 C -9.304776585465468 2.8983828411821104 -9.32511747941449 2.8993998858795615 -9.345314289698944 2.9018239157916588 L -9.345314289698944 3.3513900799408107 L -9.366011987168234 3.3486506788051695 C -9.371186411535556 3.365391463522978 -9.371186411535556 3.3821322482407865 -9.3769695917108 3.398264277150675 C -9.382752771886043 3.4143963060605635 -9.390666597389007 3.4308327128744116 -9.39705853337217 3.4469647417843 C -9.710236484716534 4.2461534420236235 -10.569323418875001 4.687267174685446 -11.401298233245328 4.476077885061345 C -12.233273047615654 4.264888595437245 -12.777961888189255 3.467439065661705 -12.672050883470266 2.6156375237061367 C -12.56613987875128 1.763835981750567 -11.842749351378938 1.1240564646568998 -10.984389302524386 1.123039445048503 Z M -5.102590686398318 2.252585846644645 L -5.102590686398318 2.252585846644645 Z M -7.30232979831837 3.4092218816932407 C -7.322716818241751 3.41005793998801 -7.343133655193107 3.408628761401415 -7.363205379110402 3.4049605910377982 L -7.374771739460888 3.4064824805575995 L -7.459997552569732 3.4064824805575995 L -7.459997552569732 3.4046562131338387 L -9.194951605142625 3.4046562131338387 L -9.194951605142625 2.856775986005556 L -8.986148363025958 2.856775986005556 C -8.9888877641616 2.856775986005556 -8.99132278739328 2.848862160502592 -8.994062188528922 2.847340270982791 C -8.99162716529724 2.847340270982791 -8.988583386257638 2.847340270982791 -8.986148363025958 2.847340270982791 L -7.812467165355593 2.8519059395421937 L -7.812467165355593 2.856167230197636 L -7.375076117364848 2.856167230197636 L -7.370510448805446 2.8479490267907117 C -7.347682106008433 2.8479490267907117 -7.325462519019342 2.8503840500223925 -7.304156065742131 2.8503840500223925 C -7.2584356007303095 2.8721702220230974 -7.214384233027945 2.8972988313128996 -7.172360433327384 2.925565392300551 C -7.151963452106102 2.9487966852965704 -7.134201324108799 2.9742149029478853 -7.119398678038316 3.00135549038663 C -7.103156343776231 3.0391389077297077 -7.0939748502372 3.079578744440945 -7.092309044585862 3.1206716287390117 C -7.090391234008091 3.167857347242202 -7.1024633159631625 3.21455724322629 -7.12700812563732 3.254902284385442 C -7.144554494374066 3.2824401660674356 -7.164959469833994 3.3080484102696452 -7.18788370642935 3.33130113827944 C -7.234405425311388 3.377769875074903 -7.298096569835672 3.4028937175516107 -7.3638141349183215 3.4006993003823567 C -7.343693664204947 3.4057423763253327 -7.323068433529517 3.408499214088881 -7.30232979831837 3.408917503789281 Z M -9.33679170838806 2.8509928058303133 C -9.319139106301035 2.848646366899861 -9.301325756292437 2.8477302517565617 -9.283525575195029 2.848253404694672 L -9.28352557519503 2.848253404694672 C -9.301317555340189 2.8476293573584686 -9.31913087314824 2.8484436804582653 -9.33679170838806 2.850688427926353 Z M -7.302634176222331 2.698803853850235 C -7.261610848967347 2.7044407573735647 -7.221865874589091 2.7171056067220762 -7.185144305293711 2.7362423360373347 L -7.190014351757073 2.7362423360373347 C -7.225148776413048 2.7176205568712177 -7.263258227707406 2.705260734829804 -7.302634176222331 2.699716987562115 Z M -7.1766217239828265 2.5843577619612166 C -7.344724998525482 2.5843577619612166 -7.480999627942983 2.448083132543716 -7.480999627942983 2.2799798580010595 C -7.480999627942983 2.111876583458403 -7.344724998525482 1.975601954040903 -7.1766217239828265 1.975601954040903 C -7.008518449440169 1.975601954040903 -6.8722438200226685 2.111876583458403 -6.8722438200226685 2.2799798580010595 C -6.872001166524394 2.3608639931720123 -6.903962306814431 2.438518496552544 -6.961070558130206 2.495798072622266 C -7.01817880944598 2.553077648691988 -7.095737224831629 2.5852712596541636 -7.176621723982828 2.585270895673096 Z M -9.080505513253605 2.819946259626377 L -9.080505513253605 2.819946259626377 L -9.064677862247677 2.823903172377859 Z M -9.080505513253605 2.816598102682816 L -9.080505513253605 2.816598102682816 C -9.080505513253605 2.800161695868967 -9.080505513253605 2.773072062416513 -9.080505513253605 2.773072062416513 C -9.080505513253605 2.773072062416513 -9.080505513253605 2.8010748295808474 -9.080505513253605 2.8175112363946955 Z M -9.28352557519503 2.8235987944738987 C -9.283337943541683 2.819988249467098 -9.282724950013161 2.816412453884059 -9.28169930777127 2.8129455678352935 C -9.28169930777127 2.816598102682816 -9.28169930777127 2.8202506375303376 -9.28169930777127 2.8235987944738987 L -9.28169930777127 2.830295108361023 C -9.282464455616047 2.8288405346014454 -9.283076493455335 2.82731044000323 -9.28352557519503 2.82572943980162 Z M -9.278351150827708 2.846731515174871 Z M -9.265871656765341 2.846731515174871 L -9.265871656765341 2.846731515174871 Z M -9.258262209166338 3.378479713393265 L -9.258262209166338 3.4046562131338387 L -9.260392854494057 3.4046562131338387 L -9.258262209166338 3.4064824805575995 L -9.258262209166338 3.4080043700774008 L -9.268002302093063 3.4080043700774008 C -9.263960123083981 3.404493842819811 -9.260915394379808 3.399979245086037 -9.259175342878219 3.3949161202071148 L -9.259175342878219 3.385784783088309 C -9.259175342878219 3.3836541377605878 -9.26526290095742 3.3815234924328665 -9.259175342878219 3.3793928471051453 L -9.259175342878219 3.354738236884373 L -9.250957139471295 3.354738236884373 C -9.254467684969839 3.362598728542242 -9.256923975068396 3.370888707624875 -9.258262209166338 3.3793928471051453 Z M -9.265567278861381 2.897258247232257 L -9.265567278861381 2.897258247232257 Z M -9.283525575195029 3.4046562131338387 C -9.302143748851863 3.4051059065558658 -9.320768417222066 3.404088165114871 -9.339226731619737 3.401612434094237 C -9.32075271129375 3.403917291816251 -9.30214074218205 3.404934339308693 -9.28352557519503 3.404656213133838 Z M -9.265871656765341 3.455487323095184 L -9.265871656765341 3.455487323095184 Z M -11.022740918423366 4.626124741725947 C -11.010261424361 4.626124741725947 -10.997781930298634 4.626124741725947 -10.985302436236267 4.626124741725947 L -10.985302436236267 4.626124741725947 C -10.997781930298634 4.6270378754378285 -11.010261424361 4.626429119629907 -11.022740918423366 4.626124741725947 Z M -11.083616499215397 4.624298474302186 L -11.076920185328275 4.624298474302186 Z" fill="#4e888f" transform="matrix(1,0,0,1,0,0)" fill-rule="nonzero"></path></g><g clip-path="url(#SvgjsClipPath2802510cce2ae-5941-42b0-a1fa-6913a6901a5c)"><path d=" M -6.46772558565962 -0.7963676173242445 C -6.632747474621905 -0.7964907221044172 -6.781582993250193 -0.6971624134269405 -6.844791016309884 -0.5447255910632055 C -6.9079990393695745 -0.39228876869947027 -6.873123070383409 -0.2167843775938474 -6.756434941185388 -0.10009624839582765 C -6.6397468119873695 0.01659188080219165 -6.464242420881746 0.051467849788358944 -6.311805598518011 -0.011740173271331589 C -6.159368776154276 -0.07494819633102212 -6.060040467476799 -0.22378371495931004 -6.060163572256972 -0.388805603921594 C -6.060498820615231 -0.6137568777805281 -6.242774311800687 -0.7960323689659852 -6.46772558565962 -0.7963676173242444 Z M -6.46772558565962 -0.08260143253767693 C -6.636837479849533 -0.08260143253767693 -6.773929757043538 -0.21969370973168223 -6.773929757043538 -0.3888056039215946 C -6.773929757043538 -0.5579174981115068 -6.636837479849533 -0.6950097753055122 -6.46772558565962 -0.6950097753055122 C -6.298613691469708 -0.6950097753055122 -6.161521414275703 -0.5579174981115069 -6.161521414275703 -0.3888056039215947 C -6.162024227454924 -0.22000103936035464 -6.298920354734016 -0.08337707138004125 -6.467725585659633 -0.08321018834559735 Z" fill="#4e888f" transform="matrix(1,0,0,1,0,0)" fill-rule="nonzero"></path></g><g clip-path="url(#SvgjsClipPath2802510cce2ae-5941-42b0-a1fa-6913a6901a5c)"><path d=" M -6.160608280563822 2.737764225557135 C -5.9084533687498375 2.737764225557135 -5.704041424623587 2.5333522814308846 -5.704041424623587 2.2811973696169003 C -5.704041424623587 2.029042457802916 -5.9084533687498375 1.824630513676665 -6.160608280563822 1.824630513676665 C -6.412763192377807 1.824630513676665 -6.617175136504057 2.029042457802916 -6.617175136504057 2.2811973696169003 C -6.617175136504057 2.5333522814308846 -6.412763192377807 2.737764225557135 -6.160608280563822 2.737764225557135 Z M -6.160608280563822 1.9768194656567435 C -5.992505006021166 1.9768194656567435 -5.856230376603666 2.113094095074244 -5.856230376603666 2.2811973696169003 C -5.856230376603666 2.449300644159557 -5.992505006021166 2.5855752735770565 -6.160608280563822 2.5855752735770565 C -6.328711555106479 2.5855752735770565 -6.46498618452398 2.449300644159557 -6.46498618452398 2.2811973696169003 C -6.465309934247066 2.2002605869950393 -6.433384619676063 2.122527727908504 -6.37626756210477 2.065182202106924 C -6.319150504533478 2.0078366763053452 -6.24154571068514 1.9756013065388618 -6.160608280563825 1.9756019540409022 Z" fill="#4e888f" transform="matrix(1,0,0,1,0,0)" fill-rule="nonzero"></path></g><g clip-path="url(#SvgjsClipPath2802510cce2ae-5941-42b0-a1fa-6913a6901a5c)"><path d=" M -5.458104078223781 2.4738685828236786 L -5.623990035882067 2.773072062416513 C -5.545657542330554 2.687970355648422 -5.488784342818765 2.5853898875381667 -5.458104078223781 2.4738685828236786 Z" fill="#4e888f" transform="matrix(1,0,0,1,0,0)" fill-rule="nonzero"></path></g><g clip-path="url(#SvgjsClipPath2802510cce2ae-5941-42b0-a1fa-6913a6901a5c)"><path d=" M -8.242857521555255 1.9856464248715884 C -8.258685172561183 1.9856464248715884 -8.27329531195127 1.9856464248715884 -8.28942734086116 1.9835157795438667 C -8.515000751346005 1.9680448785829923 -8.717408070976488 1.8394338345610588 -8.827229204539357 1.641792667499961 C -8.937050338102225 1.4441515004388628 -8.939354209679909 1.2043511337582389 -8.83335065523796 1.0046364404080033 C -8.815321074874923 0.9706966992963852 -8.794339516970226 0.9384095446566307 -8.770648807022166 0.9081486448526317 C -8.748877637292594 0.8797821803938473 -8.724745735770473 0.8533083643780179 -8.69851124378361 0.829010389822993 L -8.749342353744957 0.7376970186349456 L -8.799564707898382 0.6463836474468985 C -8.826484939007042 0.6687330631377764 -8.851999752564023 0.6927230870399594 -8.875963561792382 0.7182168327814962 C -9.115238157697291 0.9709394925334871 -9.181064815103866 1.3418579335887617 -9.043364248577834 1.6614821331982232 C -8.905663682051804 1.9811063328076843 -8.590881926473287 2.1880509753938213 -8.242857521555255 2.187753353101132 C -8.220942312470124 2.187753353101132 -8.198722725481034 2.187753353101132 -8.17711189429986 2.185013951965491 C -8.140795066945884 2.1825201503048097 -8.104692195782565 2.177536937101986 -8.069057738394005 2.1700994346714433 C -8.034824644739842 2.1632567847656032 -8.001069756685915 2.1542080346547614 -7.968004274279234 2.14300980121899 L -8.018226628432659 2.051696430030942 L -8.069057738394005 1.960383058842895 C -8.103476774203298 1.9697056661324692 -8.138595436314883 1.9762204324372277 -8.174068115260258 1.9798632446963451 C -8.196896458057271 1.9841245353517867 -8.219724800854284 1.9856464248715884 -8.242857521555255 1.9856464248715884 Z" fill="#4e888f" transform="matrix(1,0,0,1,0,0)" fill-rule="nonzero"></path></g><g clip-path="url(#SvgjsClipPath2802510cce2ae-5941-42b0-a1fa-6913a6901a5c)"><path d=" M -6.555690799904106 0.7574815823923557 L -5.115983314172565 0.7574815823923557 C -5.0452998748250035 0.7574815836388231 -4.979985682909813 0.7197724183181755 -4.944643962961005 0.658558764375119 C -4.9093022430121955 0.5973451104320622 -4.909302243168906 0.521926778345531 -4.944643963372103 0.46071312454934565 C -4.9799856835753 0.3994994707531603 -5.0452998756472 0.36179030570394155 -5.115983314994761 0.36179030724415173 L -6.555690799904106 0.36179030724415173 C -6.626374239251668 0.3617903059976839 -6.691688431166858 0.39949947131833174 -6.727030151115666 0.4607131252613885 C -6.762371871064476 0.5219267792044451 -6.762371870907766 0.597345111290976 -6.727030150704569 0.6585587650871616 C -6.691688430501371 0.719772418883347 -6.626374238429472 0.7574815839325659 -6.55569079908191 0.7574815823923557 Z" fill="#4e888f" transform="matrix(1,0,0,1,0,0)" fill-rule="nonzero"></path></g></g><g><path d=" M 1.8761865000000002 2.3485755000000004 L 2.7050955 2.3485755000000004 Q 2.6649870000000004 2.4689010000000007 2.5959112500000003 2.57362875 Q 2.5268355000000002 2.6783565000000005 2.4287925 2.7563452500000003 Q 2.3307495 2.834334 2.1925980000000003 2.8766707500000006 Q 2.0544465 2.9190075 1.8850995000000002 2.9190075 Q 1.6087965000000002 2.9190075 1.39711275 2.7964537500000004 Q 1.185429 2.6739000000000006 1.06287525 2.4488467500000004 Q 0.9403215 2.2237935 0.9403215 1.9162950000000003 Q 0.9403215 1.6043400000000003 1.0673317500000001 1.38819975 Q 1.194342 1.1720595 1.4082540000000001 1.0561905 Q 1.6221660000000002 0.9403215 1.8850995000000002 0.9403215 Q 2.156946 0.9403215 2.3374342500000003 1.0628752500000003 Q 2.5179225 1.185429 2.6248785000000003 1.372602 L 3.2933535000000003 1.024995 Q 3.1462890000000003 0.8066265000000001 2.9435182500000003 0.6395077500000004 Q 2.7407475000000003 0.47238900000000017 2.4778140000000004 0.3788025000000004 Q 2.2148805 0.28521600000000014 1.8850995000000002 0.28521600000000014 Q 1.5152100000000002 0.28521600000000014 1.1987985 0.40108500000000014 Q 0.882387 0.5169540000000001 0.6461925000000001 0.7308660000000002 Q 0.40999800000000003 0.9447780000000003 0.28075950000000005 1.2455917500000004 Q 0.15152100000000002 1.5464055000000003 0.15152100000000002 1.9162950000000003 Q 0.15152100000000002 2.2861845 0.27853125 2.5914547500000005 Q 0.40554150000000005 2.8967250000000004 0.632823 3.1173217500000003 Q 0.8601045 3.3379185000000002 1.1720595 3.4560157500000006 Q 1.4840145000000002 3.5741130000000005 1.8583605 3.5741130000000005 Q 2.254989 3.5741130000000005 2.5624875 3.4337332500000004 Q 2.8699860000000004 3.2933535000000003 3.0749850000000003 3.0437895000000004 Q 3.2799840000000002 2.7942255000000005 3.3780270000000003 2.4689010000000007 Q 3.4760700000000004 2.1435765 3.4537875000000002 1.7692305000000004 L 1.8761865000000002 1.7692305000000004 L 1.8761865000000002 2.3485755000000004 M 4.9290043293457035 3.5206350000000004 Q 5.321176329345703 3.5206350000000004 5.5952510793457035 3.3691140000000006 Q 5.869325829345703 3.2175930000000004 6.0297598293457035 2.9145510000000003 L 5.428132329345703 2.7674865000000004 Q 5.352371829345703 2.9011815000000003 5.225361579345703 2.9680290000000005 Q 5.098351329345704 3.0348765 4.920091329345704 3.0348765 Q 4.764113829345703 3.0348765 4.657157829345703 2.9658007500000005 Q 4.550201829345704 2.8967250000000004 4.4967238293457035 2.7630300000000005 Q 4.443245829345703 2.629335 4.443245829345703 2.4421620000000006 Q 4.447702329345703 2.2371630000000002 4.498952079345703 2.1012397500000004 Q 4.550201829345704 1.9653165000000004 4.652701329345703 1.8984690000000004 Q 4.7552008293457035 1.8316215000000002 4.906721829345703 1.8316215000000002 Q 5.027047329345703 1.8316215000000002 5.116177329345703 1.8850995000000004 Q 5.205307329345703 1.9385775000000003 5.254328829345703 2.0366205000000006 Q 5.303350329345704 2.1346635000000003 5.303350329345704 2.2683585000000006 Q 5.303350329345704 2.2995540000000005 5.287752579345703 2.3463472500000004 Q 5.272154829345704 2.3931405000000003 5.2498723293457035 2.4243360000000003 L 5.410306329345703 2.2193370000000003 L 4.144660329345703 2.2193370000000003 L 4.144660329345703 2.5936830000000004 L 6.016390329345704 2.5936830000000004 Q 6.025303329345704 2.5624875000000005 6.025303329345704 2.51569425 Q 6.025303329345704 2.4689010000000007 6.025303329345704 2.4198795000000004 Q 6.025303329345704 2.0900985000000003 5.896064829345703 1.8583605000000003 Q 5.766826329345703 1.6266225000000003 5.521718829345703 1.5040687500000003 Q 5.2766113293457035 1.3815150000000003 4.920091329345704 1.3815150000000003 Q 4.563571329345703 1.3815150000000003 4.302866079345703 1.5107535000000003 Q 4.042160829345703 1.6399920000000003 3.904009329345703 1.8806430000000003 Q 3.7658578293457032 2.1212940000000002 3.7658578293457032 2.4510750000000003 Q 3.7658578293457032 2.7763995 3.9084658293457033 3.0170505000000003 Q 4.051073829345703 3.2577015000000005 4.311779079345703 3.3891682500000004 Q 4.572484329345703 3.5206350000000004 4.9290043293457035 3.5206350000000004 M 6.194641625244141 1.4260800000000002 L 6.194641625244141 1.9831425000000003 L 7.56724362524414 1.9831425000000003 L 7.56724362524414 1.4260800000000002 L 6.194641625244141 1.4260800000000002 M 6.55561812524414 0.7130400000000003 L 6.55561812524414 3.4760700000000004 L 7.201810625244141 3.4760700000000004 L 7.201810625244141 0.7130400000000003 L 6.55561812524414 0.7130400000000003 M 7.892537660888672 0.35652000000000017 L 7.892537660888672 2.4510750000000003 Q 7.892537660888672 2.745204 7.988352410888671 2.9635725000000006 Q 8.084167160888672 3.1819410000000006 8.255742410888672 3.3223207500000003 Q 8.427317660888672 3.4627005000000004 8.654599160888672 3.5340045000000004 Q 8.881880660888672 3.6053085000000005 9.144814160888671 3.6053085000000005 Q 9.40774766088867 3.6053085000000005 9.637257410888672 3.5340045000000004 Q 9.86676716088867 3.4627005000000004 10.03834241088867 3.3223207500000003 Q 10.20991766088867 3.1819410000000006 10.305732410888671 2.9635725000000006 Q 10.401547160888672 2.745204 10.401547160888672 2.4510750000000003 L 10.401547160888672 0.35652000000000017 L 9.648398660888672 0.35652000000000017 L 9.648398660888672 2.397597 Q 9.648398660888672 2.6337915000000005 9.52361666088867 2.7808560000000004 Q 9.39883466088867 2.9279205000000004 9.144814160888671 2.9279205000000004 Q 8.895250160888672 2.9279205000000004 8.770468160888672 2.7808560000000004 Q 8.64568616088867 2.6337915000000005 8.64568616088867 2.397597 L 8.64568616088867 0.35652000000000017 L 7.892537660888672 0.35652000000000017 M 11.631491112304687 1.4260800000000002 L 10.967472612304688 1.4260800000000002 L 10.967472612304688 3.4760700000000004 L 11.631491112304687 3.4760700000000004 L 11.631491112304687 1.4260800000000002 M 12.224205612304686 2.1212940000000002 L 12.513878112304686 1.5464055000000003 Q 12.460400112304686 1.4661885000000003 12.357900612304688 1.4216235000000004 Q 12.255401112304687 1.3770585000000004 12.143988612304687 1.3770585000000004 Q 11.974641612304687 1.3770585000000004 11.818664112304686 1.4884710000000003 Q 11.662686612304688 1.5998835000000002 11.566871862304687 1.7915130000000004 Q 11.471057112304686 1.9831425000000003 11.471057112304686 2.22825 L 11.631491112304687 2.4644445000000004 Q 11.631491112304687 2.3173800000000004 11.671599612304687 2.2148805000000005 Q 11.711708112304686 2.112381 11.787468612304687 2.0589030000000004 Q 11.863229112304687 2.0054250000000002 11.961272112304687 2.0054250000000002 Q 12.050402112304686 2.0054250000000002 12.110564862304686 2.0366205000000006 Q 12.170727612304686 2.0678160000000005 12.224205612304686 2.1212940000000002 M 13.42305198486328 1.9252080000000003 L 14.006853484863282 1.9252080000000003 Q 14.33217798486328 1.9252080000000003 14.57951373486328 1.8338497500000004 Q 14.826849484863281 1.7424915000000003 14.97168573486328 1.5686880000000003 Q 15.116521984863281 1.3948845000000003 15.116521984863281 1.1497770000000003 Q 15.116521984863281 0.882387 14.97168573486328 0.7063552500000001 Q 14.826849484863281 0.5303235000000002 14.57951373486328 0.44342175000000017 Q 14.33217798486328 0.35652000000000017 14.006853484863282 0.35652000000000017 L 12.861532984863281 0.35652000000000017 L 12.861532984863281 3.4760700000000004 L 14.082613984863281 3.4760700000000004 Q 14.45250348486328 3.4760700000000004 14.72434998486328 3.3847117500000006 Q 14.996196484863281 3.2933535000000003 15.14548923486328 3.1017240000000004 Q 15.294781984863281 2.9100945000000005 15.294781984863281 2.5981395000000003 Q 15.294781984863281 2.3619450000000004 15.19005423486328 2.19482625 Q 15.08532648486328 2.0277075 14.91152298486328 1.9185232500000002 Q 14.73771948486328 1.8093390000000003 14.52380748486328 1.7603175000000002 Q 14.309895484863281 1.7112960000000004 14.082613984863281 1.7112960000000004 L 13.42305198486328 1.7112960000000004 L 13.42305198486328 2.1212940000000002 L 13.99794048486328 2.1212940000000002 Q 14.10935298486328 2.1212940000000002 14.200711234863281 2.14134825 Q 14.29206948486328 2.1614025000000003 14.363373484863281 2.2059675000000003 Q 14.43467748486328 2.2505325000000003 14.474785984863281 2.3218365000000003 Q 14.51489448486328 2.3931405000000003 14.51489448486328 2.4911835000000004 Q 14.51489448486328 2.6427045000000002 14.44581873486328 2.7296062500000002 Q 14.37674298486328 2.8165080000000002 14.26087398486328 2.8543882500000004 Q 14.14500498486328 2.8922685 13.99794048486328 2.8922685 L 13.614681484863281 2.8922685 L 13.614681484863281 0.9403215 L 13.92663648486328 0.9403215 Q 14.118265984863282 0.9403215 14.22745023486328 1.0205385000000002 Q 14.33663448486328 1.1007555000000004 14.33663448486328 1.2611895000000004 Q 14.33663448486328 1.3681455000000002 14.28761298486328 1.4416777500000002 Q 14.238591484863282 1.5152100000000002 14.14723323486328 1.5553185000000003 Q 14.05587498486328 1.5954270000000004 13.92663648486328 1.5954270000000004 L 13.42305198486328 1.5954270000000004 L 13.42305198486328 1.9252080000000003 M 15.709243012939453 0.6551055000000003 Q 15.709243012939453 0.8155395000000003 15.825112012939453 0.9180390000000003 Q 15.940981012939453 1.0205385000000002 16.10141501293945 1.0205385000000002 Q 16.266305512939454 1.0205385000000002 16.379946262939452 0.9180390000000003 Q 16.493587012939454 0.8155395000000003 16.493587012939454 0.6551055000000003 Q 16.493587012939454 0.4946715000000004 16.379946262939452 0.39440025000000034 Q 16.266305512939454 0.2941290000000003 16.10141501293945 0.2941290000000003 Q 15.940981012939453 0.2941290000000003 15.825112012939453 0.39440025000000034 Q 15.709243012939453 0.4946715000000004 15.709243012939453 0.6551055000000003 M 15.776090512939453 1.4260800000000002 L 15.776090512939453 3.4760700000000004 L 16.426739512939452 3.4760700000000004 L 16.426739512939452 1.4260800000000002 L 15.776090512939453 1.4260800000000002 M 16.970436864990234 0 L 16.970436864990234 3.4760700000000004 L 17.616629364990235 3.4760700000000004 L 17.616629364990235 0 L 16.970436864990234 0 M 18.360864864990234 1.4260800000000002 L 17.482934364990236 2.2728150000000005 L 18.463364364990234 3.4760700000000004 L 19.252164864990235 3.4760700000000004 L 18.289560864990236 2.2728150000000005 L 19.163034864990234 1.4260800000000002 L 18.360864864990234 1.4260800000000002 M 20.517863089599608 3.5206350000000004 Q 20.91003508959961 3.5206350000000004 21.18410983959961 3.3691140000000006 Q 21.45818458959961 3.2175930000000004 21.61861858959961 2.9145510000000003 L 21.01699108959961 2.7674865000000004 Q 20.94123058959961 2.9011815000000003 20.814220339599608 2.9680290000000005 Q 20.68721008959961 3.0348765 20.508950089599608 3.0348765 Q 20.35297258959961 3.0348765 20.24601658959961 2.9658007500000005 Q 20.13906058959961 2.8967250000000004 20.08558258959961 2.7630300000000005 Q 20.03210458959961 2.629335 20.03210458959961 2.4421620000000006 Q 20.03656108959961 2.2371630000000002 20.08781083959961 2.1012397500000004 Q 20.13906058959961 1.9653165000000004 20.24156008959961 1.8984690000000004 Q 20.34405958959961 1.8316215000000002 20.49558058959961 1.8316215000000002 Q 20.61590608959961 1.8316215000000002 20.70503608959961 1.8850995000000004 Q 20.79416608959961 1.9385775000000003 20.84318758959961 2.0366205000000006 Q 20.89220908959961 2.1346635000000003 20.89220908959961 2.2683585000000006 Q 20.89220908959961 2.2995540000000005 20.87661133959961 2.3463472500000004 Q 20.861013589599608 2.3931405000000003 20.83873108959961 2.4243360000000003 L 20.999165089599607 2.2193370000000003 L 19.73351908959961 2.2193370000000003 L 19.73351908959961 2.5936830000000004 L 21.60524908959961 2.5936830000000004 Q 21.61416208959961 2.5624875000000005 21.61416208959961 2.51569425 Q 21.61416208959961 2.4689010000000007 21.61416208959961 2.4198795000000004 Q 21.61416208959961 2.0900985000000003 21.48492358959961 1.8583605000000003 Q 21.35568508959961 1.6266225000000003 21.110577589599608 1.5040687500000003 Q 20.865470089599608 1.3815150000000003 20.508950089599608 1.3815150000000003 Q 20.15243008959961 1.3815150000000003 19.891724839599608 1.5107535000000003 Q 19.63101958959961 1.6399920000000003 19.492868089599607 1.8806430000000003 Q 19.354716589599608 2.1212940000000002 19.354716589599608 2.4510750000000003 Q 19.354716589599608 2.7763995 19.497324589599607 3.0170505000000003 Q 19.63993258959961 3.2577015000000005 19.900637839599607 3.3891682500000004 Q 20.161343089599608 3.5206350000000004 20.517863089599608 3.5206350000000004 M 22.893168885498046 1.8850995000000004 L 23.744360385498045 3.1863975000000004 L 24.600008385498047 1.8850995000000004 L 24.787181385498045 3.4760700000000004 L 25.580438385498045 3.4760700000000004 L 25.076853885498046 0.20054250000000007 L 23.744360385498045 2.1034680000000003 L 22.416323385498046 0.20054250000000007 L 21.912738885498044 3.4760700000000004 L 22.705995885498044 3.4760700000000004 L 22.893168885498046 1.8850995000000004 M 25.870071717041014 2.4510750000000003 Q 25.870071717041014 2.7719430000000003 26.021592717041017 3.0125940000000004 Q 26.173113717041016 3.2532450000000006 26.440503717041015 3.3869400000000005 Q 26.707893717041017 3.5206350000000004 27.042131217041014 3.5206350000000004 Q 27.376368717041014 3.5206350000000004 27.641530467041015 3.3869400000000005 Q 27.906692217041016 3.2532450000000006 28.060441467041016 3.0125940000000004 Q 28.214190717041014 2.7719430000000003 28.214190717041014 2.4510750000000003 Q 28.214190717041014 2.1257505000000005 28.060441467041016 1.8850995000000004 Q 27.906692217041016 1.6444485000000002 27.641530467041015 1.5107535000000003 Q 27.376368717041014 1.3770585000000004 27.042131217041014 1.3770585000000004 Q 26.707893717041017 1.3770585000000004 26.440503717041015 1.5107535000000003 Q 26.173113717041016 1.6444485000000002 26.021592717041017 1.8850995000000004 Q 25.870071717041014 2.1257505000000005 25.870071717041014 2.4510750000000003 M 26.560829217041015 2.4510750000000003 Q 26.560829217041015 2.2906410000000004 26.627676717041016 2.1747720000000004 Q 26.694524217041014 2.0589030000000004 26.801480217041014 1.9965120000000003 Q 26.908436217041015 1.9341210000000002 27.042131217041014 1.9341210000000002 Q 27.171369717041017 1.9341210000000002 27.280553967041016 1.9965120000000003 Q 27.389738217041014 2.0589030000000004 27.454357467041014 2.1747720000000004 Q 27.518976717041014 2.2906410000000004 27.518976717041014 2.4510750000000003 Q 27.518976717041014 2.6115090000000003 27.454357467041014 2.7251497500000004 Q 27.389738217041014 2.8387905000000004 27.280553967041016 2.9011815000000003 Q 27.171369717041017 2.9635725000000006 27.042131217041014 2.9635725000000006 Q 26.908436217041015 2.9635725000000006 26.801480217041014 2.9011815000000003 Q 26.694524217041014 2.8387905000000004 26.627676717041016 2.7251497500000004 Q 26.560829217041015 2.6115090000000003 26.560829217041015 2.4510750000000003 M 30.16608984448242 0 L 30.16608984448242 3.4760700000000004 L 30.839021344482422 3.4760700000000004 L 30.839021344482422 0 L 30.16608984448242 0 M 28.49044584448242 2.4510750000000003 Q 28.49044584448242 2.7942255000000005 28.63082559448242 3.0326482500000003 Q 28.77120534448242 3.2710710000000005 28.99403034448242 3.3958530000000002 Q 29.216855344482422 3.5206350000000004 29.46641934448242 3.5206350000000004 Q 29.72489634448242 3.5206350000000004 29.92321059448242 3.3913965000000004 Q 30.12152484448242 3.2621580000000003 30.23739384448242 3.0215070000000006 Q 30.35326284448242 2.7808560000000004 30.35326284448242 2.4510750000000003 Q 30.35326284448242 2.1168375000000004 30.23739384448242 1.8784147500000004 Q 30.12152484448242 1.6399920000000003 29.92321059448242 1.5107535000000003 Q 29.72489634448242 1.3815150000000003 29.46641934448242 1.3815150000000003 Q 29.216855344482422 1.3815150000000003 28.99403034448242 1.5062970000000002 Q 28.77120534448242 1.6310790000000002 28.63082559448242 1.8672735000000003 Q 28.49044584448242 2.1034680000000003 28.49044584448242 2.4510750000000003 M 29.19902934448242 2.4510750000000003 Q 29.19902934448242 2.2906410000000004 29.26587684448242 2.17254375 Q 29.332724344482422 2.0544465 29.444136844482422 1.9898272500000003 Q 29.55554934448242 1.9252080000000003 29.68924434448242 1.9252080000000003 Q 29.80511334448242 1.9252080000000003 29.91429759448242 1.9875990000000003 Q 30.02348184448242 2.04999 30.09478584448242 2.16808725 Q 30.16608984448242 2.2861845 30.16608984448242 2.4510750000000003 Q 30.16608984448242 2.6159655000000006 30.09478584448242 2.7340627500000005 Q 30.02348184448242 2.8521600000000005 29.91429759448242 2.9145510000000003 Q 29.80511334448242 2.976942 29.68924434448242 2.976942 Q 29.55554934448242 2.976942 29.444136844482422 2.9123227500000004 Q 29.332724344482422 2.8477035000000006 29.26587684448242 2.7296062500000002 Q 29.19902934448242 2.6115090000000003 29.19902934448242 2.4510750000000003 M 31.467407428710935 2.7318345000000006 L 31.186647928710936 3.1774845000000003 Q 31.324799428710936 3.2844405000000005 31.485233428710934 3.3713422500000005 Q 31.645667428710937 3.4582440000000005 31.835068678710936 3.5094937500000003 Q 32.024469928710936 3.5607435000000005 32.24283842871093 3.5607435000000005 Q 32.61272792871094 3.5607435000000005 32.81549867871094 3.3936247500000003 Q 33.01826942871094 3.2265060000000005 33.01826942871094 2.8967250000000004 Q 33.01826942871094 2.7050955000000005 32.93582417871094 2.5892265000000005 Q 32.85337892871094 2.4733575000000005 32.717455678710934 2.397597 Q 32.581532428710936 2.3218365000000003 32.421098428710934 2.2639020000000003 Q 32.26957742871094 2.2059675000000003 32.16484967871094 2.16808725 Q 32.060121928710934 2.1302070000000004 32.004415678710934 2.085642 Q 31.948709428710934 2.0410770000000005 31.948709428710934 1.9742295000000003 Q 31.948709428710934 1.9162950000000003 31.995502678710935 1.8806430000000003 Q 32.042295928710935 1.8449910000000003 32.135882428710936 1.8449910000000003 Q 32.274033928710935 1.8449910000000003 32.43892442871093 1.9229797500000003 Q 32.60381492871094 2.0009685000000004 32.73305342871094 2.1212940000000002 L 32.97370442871094 1.6845570000000003 Q 32.85337892871094 1.5954270000000004 32.717455678710934 1.5285795000000002 Q 32.581532428710936 1.4617320000000005 32.42778317871094 1.4216235000000004 Q 32.274033928710935 1.3815150000000003 32.09577392871093 1.3815150000000003 Q 31.872948928710937 1.3815150000000003 31.701373678710937 1.4483625000000004 Q 31.529798428710937 1.5152100000000002 31.429527178710934 1.6444485000000002 Q 31.329255928710936 1.7736870000000002 31.329255928710936 1.9608600000000003 Q 31.329255928710936 2.1569460000000005 31.413929428710937 2.281728 Q 31.498602928710937 2.4065100000000004 31.630069678710935 2.4800422500000003 Q 31.761536428710937 2.5535745000000003 31.908600928710936 2.6070525000000004 Q 32.07349142871094 2.6560740000000003 32.16930617871093 2.7006390000000002 Q 32.265120928710935 2.745204 32.30522942871094 2.7919972500000005 Q 32.34533792871093 2.8387905000000004 32.34533792871093 2.9056380000000006 Q 32.34533792871093 2.976942 32.29631642871094 3.0215070000000006 Q 32.247294928710936 3.0660720000000006 32.144795428710935 3.0660720000000006 Q 32.07349142871094 3.0660720000000006 31.975448428710937 3.0371047500000006 Q 31.877405428710937 3.0081375000000006 31.750395178710935 2.9346052500000006 Q 31.623384928710937 2.861073 31.467407428710935 2.7318345000000006" fill="url(#gradient-39dc81c8-71a9-4fc4-ad3d-c975804ca236)" fill-rule="nonzero"></path></g><g></g></g><defs><clipPath id="SvgjsClipPath28027"><path d=" M -12.890099359218928 -1.2529344732644796 h 12.445099359218927 v 5.98193894652896 h -12.445099359218927 Z"></path></clipPath><clipPath id="SvgjsClipPath2802510cce2ae-5941-42b0-a1fa-6913a6901a5c"><path d=" M -12.890099359218928 -1.2529344732644796 L -0.4450000000000003 -1.2529344732644796 L -0.4450000000000003 4.72900447326448 L -12.890099359218928 4.72900447326448 Z"></path></clipPath><linearGradient id="gradient-39dc81c8-71a9-4fc4-ad3d-c975804ca236" y1="0" x1="0" y2="1" x2="1"><stop stop-color="#4e888f" offset="0"></stop><stop stop-color="#404040" offset="1"></stop></linearGradient></defs></svg>