<svg xmlns="http://www.w3.org/2000/svg" version="1.1" xmlns:xlink="http://www.w3.org/1999/xlink" xmlns:svgjs="http://svgjs.dev/svgjs" viewBox="0 0 25.553773881015434 9.919174800544743"><g transform="matrix(0.7704061535756721,0,0,0.7704061535756721,4.072185365906096,6.309170470638984)"><rect width="28.509852937812116" height="28.509852937812116" x="-2.956079056796682" y="-16.00670773921759" fill="#ffffff"></rect><g clip-path="url(#SvgjsClipPath37571)"><g clip-path="url(#SvgjsClipPath37566f38fbc06-3bce-4f3d-abcd-0159bebd247d)"><path d=" M 14.881369446733775 -3.430387772111643 C 14.681318643893565 -3.4305095995041706 14.483074010145828 -3.3925405667543878 14.297225534563864 -3.318508933766952 L 13.914362512147274 -4.046352753426994 C 14.072412535986723 -3.9601099985526265 14.247952335292567 -3.9108068871883193 14.427792937327307 -3.9021477496012187 C 14.642711428142956 -3.9021477496012187 14.719991167496172 -4.233238397614513 14.719991167496172 -4.516849990077465 C 14.719991167496172 -4.800461582540416 14.642458879975134 -5.132309875057174 14.427540389159489 -5.132309875057174 C 14.089575042086416 -5.1220219953458415 13.775685727845744 -4.9549006769369175 13.57847344894538 -4.680248654657634 L 13.573927581924602 -4.689340388699189 L 13.56584604055433 -4.749194304472759 C 13.617153628267138 -4.823402595620742 13.620411171181388 -4.920734029361713 13.574180130092422 -4.9982067979442375 C 13.508968528853586 -5.107689826213123 13.36755726131489 -5.143917293794864 13.257737275812746 -5.079274759814769 L 13.202681775227774 -5.046696046165864 L 13.202681775227774 -5.046696046165864 C 12.860651503966945 -5.168815828437976 12.500355912016062 -5.231925200908159 12.137181055191096 -5.2333291421855614 C 11.772547122096949 -5.234597799760338 11.411300930209357 -5.1633443921399245 11.074458365000442 -5.023714162894157 L 11.055012156078227 -5.009571465496181 L 10.670381296486887 -4.348147813973055 L 9.606900961792775 -4.348147813973055 L 9.606900961792775 -5.055282683871777 L 9.20282389327922 -5.055282683871777 L 9.20282389327922 -4.921432154926662 C 8.546198656944693 -4.912340420885107 8.107522489439663 -4.766115031716764 7.8683593745132026 -4.486796758106769 C 7.741306654195417 -4.346162932572478 7.677496977607916 -4.159572118631349 7.691828205206344 -3.970588303080702 L 7.696879168562763 -3.918815928677403 L 8.479778488807776 -3.918815928677403 L 8.206773919393305 -3.3543707735975303 L 8.169649338723623 -3.276585937908671 C 7.714602357173623 -3.4205763279797203 7.218173287901122 -3.339045457701477 6.833083765906379 -3.057075516217569 C 6.447994243911635 -2.775105574733661 6.220367245841635 -2.3264686910774794 6.220230031313539 -1.849183693384537 C 6.220204656541726 -1.798572328374755 6.222817867407529 -1.74799405355322 6.22805902451606 -1.697654792691277 C 6.222742161128863 -1.7479903338450993 6.220044676542899 -1.7985681698319276 6.219977483145718 -1.8491836933845374 C 6.219397888988354 -2.326846522441871 6.447014021978826 -2.7760533445647497 6.832532287145652 -3.058077778639856 C 7.218050552312477 -3.340102212714963 7.71509078238224 -3.421015022154937 8.170154435059086 -3.2758282934052656 L 8.207279015728947 -3.3515927437514996 C 7.613917034524368 -3.545694107456338 6.9619007325868285 -3.3721316089989566 6.543563746167522 -2.908722560830154 C 6.125226759748217 -2.445313512661351 6.0190532044209375 -1.7789979905457112 6.272646340119995 -1.2085207327541134 C 6.526239475819054 -0.6380434749625161 7.092022746760361 -0.2704316019414881 7.716325377484977 -0.2705050963356408 C 8.354417089730664 -0.2666691631914855 8.931004392222839 -0.6504279275083196 9.173780853979807 -1.2405426089359946 L 10.768622533769246 -1.2405426089359946 L 10.768622533769246 -1.2440782832854884 C 10.853621421600629 -1.255325291823723 10.930848163750511 -1.2993771658669662 10.983793572752713 -1.3668166928464807 L 11.722496963629059 -1.3668166928464807 C 12.23961002716377 -1.365978345918824 12.659686374800916 -1.7841334404190752 12.66121850341961 -2.3012449137840774 C 12.661125633993878 -2.3425475820668593 12.65834170717078 -2.3838003159000256 12.652884413881523 -2.424740967848496 L 13.480989856166484 -3.9162904469991933 L 13.600950235881447 -3.9162904469991933 L 13.998713600199476 -3.162434166053592 C 13.34686038558429 -2.7264303686421996 13.112504412936408 -1.8788729657543608 13.447769488982608 -1.1699235644956758 C 13.783034565028808 -0.46097416323699036 14.586843789621078 -0.10436933493809075 15.337433122587953 -0.3315863633440861 C 16.088022455554828 -0.5588033917500823 16.559101571774583 -1.3013400840201195 16.444886293361105 -2.0772052752345744 C 16.330671014947622 -2.8530704664490294 15.66559536774017 -3.4283535764021207 14.881369446733775 -3.429630127608181 Z M 14.881369446733775 -0.43819707976876643 C 14.263451317466071 -0.43765545689705654 13.71704146330027 -0.839169188688131 13.532965968337406 -1.429033003468466 C 13.348890473374542 -2.0188968182488005 13.569963364067316 -2.6599145890999933 14.078518821230904 -3.0109052653610084 L 14.246968449167493 -2.6916843812353 C 13.809359486914385 -2.3613460008009572 13.69880326366145 -1.7503146984239577 13.992918957858414 -1.2875825860098087 C 14.287034652055382 -0.8248504735956601 14.887209625191598 -0.6655647786779202 15.372073763760703 -0.9215566077699124 C 15.856937902329804 -1.1775484368619065 16.06392343804578 -1.7629875190804203 15.847710218315356 -2.266849497251057 C 15.631496998584932 -2.770711475421693 15.064578115409592 -3.0240588868624085 14.544975287196237 -2.849021889787765 L 14.37627311109183 -3.168747870249116 C 14.905186645478082 -3.3713891343711513 15.504005383316922 -3.2382993663415336 15.897289718462744 -2.830696078191347 C 16.290574053608566 -2.42309279004116 16.402173220234413 -1.8198992944284393 16.180754772377533 -1.2985674617819147 C 15.959336324520649 -0.7772356291353892 15.44777302080811 -0.438709775712363 14.881369446733775 -0.43870217610440854 Z M 13.530741845227215 -4.049635879608666 L 13.530741845227215 -4.044332368084426 L 10.629468493299889 -4.044332368084426 L 10.708768617995675 -4.183991504889423 L 10.771905659950917 -4.290819379877695 L 10.81685923382305 -4.3574920961824315 L 11.142393822144285 -4.91309806538857 C 11.458252356982975 -5.041722397595469 11.796137751830548 -5.107601042744729 12.137181055191093 -5.107055058275076 C 12.449269887417136 -5.105475466027349 12.75928063036725 -5.056163317629515 13.056456386059432 -4.960829669106733 L 12.6117190625267 -4.696159189230355 C 12.501807123500647 -4.630641753419205 12.46565697447588 -4.488526480065593 12.530903648823987 -4.378453594111572 C 12.596330975509538 -4.268420993459614 12.738557859454382 -4.232242453823406 12.848609243942771 -4.297638180408861 L 13.267839202525584 -4.54665067388034 L 13.322389606774914 -4.578976839361424 L 13.413054399022643 -4.633022147275112 L 13.450684076027969 -4.655498934211178 L 13.467352255104153 -4.529224850300692 L 13.506749769284223 -4.229450175097199 Z M 9.255353912185981 -3.977659651779689 L 9.255353912185981 -3.977659651779689 Z M 9.20282389327922 -4.794147878344892 L 9.20282389327922 -4.045090012587889 L 7.811536036753484 -4.045090012587889 C 7.820445624805305 -4.180475147812068 7.875126844560154 -4.308806805249752 7.966600611795562 -4.4090119224179105 C 8.178488524597356 -4.654236193372073 8.596708290508886 -4.786066336974621 9.20282389327922 -4.794905522848355 Z M 7.905989051518528 -1.849183693384537 C 7.9062081326907245 -1.7478294993977412 7.8267007010406395 -1.6642136689560134 7.725463980504709 -1.6593303247736064 C 7.624227259968778 -1.6544469805911985 7.537040956216911 -1.7300220242639592 7.527503697426925 -1.83092673837607 C 7.5179664386369405 -1.9318314524881806 7.5894489415862765 -2.022403471126117 7.689807819863772 -2.036574433907698 L 7.621367266384293 -1.894894911760133 C 7.599354995242868 -1.8430500028245493 7.62192211318567 -1.7830552516099871 7.672646027415528 -1.7585701706719035 C 7.7233699416453865 -1.7340850897338207 7.784382490985479 -1.7537348685764544 7.811283488585664 -1.8032199268411202 L 7.879724042065146 -1.9448994489886857 C 7.8969462359061655 -1.9159447659107292 7.906021308525538 -1.8828731070382063 7.905989051518528 -1.8491836933845374 Z M 7.752187217315556 -2.164111258657289 C 7.740700770172406 -2.1654280779231145 7.729149763396206 -2.1661025892677097 7.717588118324083 -2.1661316439998566 C 7.566732021659394 -2.1662510722365056 7.436767048137997 -2.059864580999011 7.407081833086863 -1.911957974752443 C 7.37739661803573 -1.764051368505874 7.4562461818462955 -1.6157552925391565 7.595465552853968 -1.5576558699926486 C 7.734684923861639 -1.4995564474461398 7.895559248743923 -1.5478102706512744 7.979819026376735 -1.672941665741709 C 8.064078804009547 -1.7980730608321438 8.048292633227742 -1.9652848327631007 7.942103439516926 -2.072436273738276 L 7.999179325444466 -2.1911339126141334 C 8.17097127448664 -2.048930303144557 8.20954544141577 -1.800848286074149 8.089042661248973 -1.6131958939392326 C 7.968539881082176 -1.4255435018043157 7.726900561677392 -1.3574032577073671 7.52611371081595 -1.4544546916124315 C 7.325326859954508 -1.5515061255174962 7.228610396788568 -1.7831925068623433 7.30080063993946 -1.994197030737305 C 7.3729908830903526 -2.205201554612266 7.591358670087985 -2.329089258399831 7.809515651410916 -2.282808897533146 Z M 7.847145328416241 -2.3608462813898266 C 7.80477292093081 -2.3714289633081997 7.761262067421791 -2.37677240145843 7.717588118324082 -2.3767568159625476 C 7.459715005909681 -2.3766221649457164 7.239880497533957 -2.189752113927165 7.198217868064147 -1.9352667792949925 C 7.156555238594338 -1.6807814446628204 7.305324203468403 -1.433566109113483 7.549692143365354 -1.3512079268380863 C 7.794060083262305 -1.2688497445626896 8.062118877081241 -1.3755835728309997 8.182994730201132 -1.6033720456950276 C 8.303870583321023 -1.831160518559055 8.241994363850079 -2.1129742167790955 8.036809002449791 -2.269171296470813 L 8.137828269578181 -2.480554112936967 C 8.466026124288236 -2.2599904221258975 8.567744750239479 -1.823161406559676 8.37074391169644 -1.480301605542084 C 8.1737430731534 -1.1374418045244905 7.745124381887227 -1.005334707049613 7.389291431715039 -1.1778023420198886 C 7.03345848154285 -1.3502699769901647 6.871613621928862 -1.7685671310833904 7.0186985432641045 -2.135620532452032 C 7.165783464599347 -2.502673933820674 7.57169870861846 -2.693459369268106 7.948164595544631 -2.5724816460238005 Z M 7.928213290286774 -2.6664295644532023 C 7.508223724560512 -2.7750237422682407 7.074346323782848 -2.5473565169664063 6.9250638821247215 -2.140049896118125 C 6.775781440466595 -1.7327432752698426 6.959774795369765 -1.2786194928781973 7.350467059948789 -1.0900896937153828 C 7.741159324527814 -0.9015598945525687 8.211146187796944 -1.0401034354942622 8.437103614162787 -1.4104102977644373 C 8.66306104052863 -1.780717160034612 8.571304565699904 -2.2620306895652327 8.224957387476415 -2.5232347532987123 C 8.251296593730961 -2.5357155824993893 8.274704569348074 -2.553615799147771 8.29365048912372 -2.575764772205473 C 8.663606897662259 -2.282197085913166 8.753661176247267 -1.757399470791491 8.502738439764155 -1.357290097032791 C 8.251815703281041 -0.9571807232740914 7.740170716641442 -0.8097299939594222 7.314801526684099 -1.0149391138561414 C 6.889432336726755 -1.2201482337528615 6.686388409590726 -1.7123834149234503 6.843374302104394 -2.1578103564137914 C 7.000360194618062 -2.603237297904133 7.46716576610342 -2.8593912913516126 7.9272030976154895 -2.752548489680153 C 7.921122432654362 -2.724173017324781 7.921036412697926 -2.6948402121801616 7.926950549447668 -2.666429564453203 Z M 9.352332408629234 -3.978417296283152 L 9.329603073525348 -4.0193300994701495 L 9.317985857805581 -4.013521491610268 L 9.328340332686242 -4.019835195805792 L 9.351574764125772 -3.9784172962831525 Z M 9.481889618721393 -4.929008599961291 L 9.481889618721393 -4.221873730062569 L 10.597394875986627 -4.221873730062569 L 10.485263489474114 -4.045090012587889 L 10.485263489474114 -4.045090012587889 L 9.331623458867915 -4.040544145567111 L 9.331623458867915 -4.929008599961291 Z M 13.322389606774916 -4.9704264994839304 C 13.334591334921061 -4.977756472456715 13.34817636305985 -4.982485437948065 13.36229221729063 -4.984316648714084 C 13.36682954140089 -4.984710780342753 13.371392494242702 -4.984710780342753 13.375929818352962 -4.984316648714083 C 13.410907392502676 -4.984336317772625 13.443589493815024 -4.966905863739372 13.463058936251198 -4.937847785835025 C 13.4643213779507 -4.936224434424449 13.465501424890583 -4.934538653081759 13.46659461060069 -4.932796822478605 C 13.479621112687617 -4.910565172386151 13.484109686327123 -4.884351902331431 13.479222018991738 -4.859052757474881 L 13.479222018991738 -4.852991601447178 C 13.476290636226086 -4.841467662578235 13.471237618888873 -4.830590828648981 13.4643216770903 -4.8209179841339145 C 13.45675996060381 -4.8091044943302945 13.446774237985128 -4.799032687895934 13.435026089623069 -4.791369848498861 L 13.430732770770112 -4.788339270485009 L 13.401942279638522 -4.771165995073183 L 13.302438301517059 -4.711817175635255 L 13.228441688345514 -4.668126342602227 L 12.78622984649099 -4.405476248068416 C 12.73622680377585 -4.375767328316912 12.67160749061869 -4.3922189649441945 12.641898570034133 -4.442222007164386 C 12.61218964944958 -4.492225049384578 12.628641285000304 -4.556844362815823 12.678644326725546 -4.586553284233428 L 13.215309183618825 -4.90552162035394 L 13.284759929769589 -4.9466869717087585 Z M 14.594222179921331 -4.515839797406181 C 14.596425421275011 -4.394588723396159 14.578416425958917 -4.2738174988830195 14.540934516511108 -4.158484139939507 C 14.523003596595817 -4.1094897953822365 14.48436372691921 -4.027664189008242 14.429055678166417 -4.027664189008242 C 14.190824616507154 -4.041400737779036 13.963999052175097 -4.134281895587422 13.784552753887295 -4.291577024381158 L 13.809807570669392 -4.242582679823888 L 13.777228857020487 -4.291577024381157 C 13.707117251228834 -4.346674412307469 13.661708574440619 -4.427320222283338 13.650954773110001 -4.515839797406181 L 13.650954773110001 -4.51583979740618 L 13.630750919684324 -4.5678647199773 L 13.662571988829768 -4.51583979740618 C 13.662571988829768 -4.768387965227152 14.142413507689614 -5.003762857636298 14.429560774502061 -5.003762857636298 C 14.517194988735934 -5.0060357911466875 14.592959439082225 -4.786066336974621 14.592959439082225 -4.516849990077465 Z M 14.88263218757288 -2.7762880174553253 C 15.339131665044036 -2.7769378094405566 15.728362473267346 -2.445610218183092 15.80061779717612 -1.9948648761906296 C 15.87287312108489 -1.5441195341981668 15.606708671456989 -1.107730853601475 15.17287937209699 -0.9656592724253823 C 14.73905007273699 -0.8235876912492897 14.266309909721485 -1.0179979097840075 14.057940221440791 -1.4241681550837706 C 13.849570533160097 -1.8303384003835346 13.967412297121395 -2.3277234760192385 14.335865404240476 -2.597231366470256 C 14.34850578271109 -2.591446753138541 14.361828767847669 -2.5872886240194815 14.375515466588368 -2.5848565062470286 L 14.39900244619572 -2.539397836039254 C 14.034615946225852 -2.284111210769312 13.931446307759153 -1.7895452711092492 14.163374333359556 -1.4098635974099443 C 14.39530235895996 -1.0301819237106393 14.882423193001515 -0.8961941033094822 15.275904769195453 -1.1038501448732676 C 15.669386345389391 -1.311506186437052 15.833664673761426 -1.7892635242148005 15.651098412106936 -2.194995384570273 C 15.46853215045245 -2.6007272449257446 15.002019824044133 -2.7946491165191527 14.585635542215417 -2.6378916214894326 L 14.561896014440247 -2.6828451953615664 C 14.56728866246582 -2.6957428654790387 14.57118646347147 -2.7092156993898717 14.57351323016001 -2.7230003540451015 C 14.672299824670826 -2.758466208361912 14.776410418722904 -2.7768286183054696 14.881369446733775 -2.777298210126609 Z M 14.71569784864322 -1.9393433892966239 L 14.789441913646943 -1.7999368006594478 C 14.807680201914884 -1.76535608787048 14.843536711979215 -1.7436867064494876 14.88263218757288 -1.7436185592353706 C 14.900202624678382 -1.7435037879830197 14.9175373490048 -1.7476641218213604 14.933141821137077 -1.7557408712907772 C 14.957881160139571 -1.7691823828407642 14.976225980480898 -1.7919495949941346 14.984098478558455 -1.8189816667062262 C 14.991970976636011 -1.8460137384183173 14.988718783364597 -1.875070607167678 14.975064816995353 -1.8996933269487317 L 14.901573300159455 -2.039099915585908 C 14.984337071357107 -2.030224173819146 15.051572422898317 -1.9682888569724195 15.067198716801862 -1.8865304350600103 C 15.082825010705413 -1.804772013147601 15.043169460939033 -1.7224068910236041 14.969512502605237 -1.6836348249994546 C 14.895855544271441 -1.6448627589753047 14.805509423601936 -1.6587966905721583 14.74695675574132 -1.7179592268698172 C 14.688404087880702 -1.777121763167477 14.675407024110495 -1.8676074101128788 14.714940204139754 -1.9408586783035506 Z M 14.650540421345408 -2.0630919915289003 C 14.548927986636041 -1.9535274772357485 14.538054275121628 -1.7877276573316245 14.624486674436866 -1.665830528454563 C 14.710919073752102 -1.5439333995775009 14.870977806005385 -1.4993349678583203 15.007992315091553 -1.55897131566514 C 15.14500682417772 -1.6186076634719595 15.221439413945884 -1.7661402941123368 15.191127148744691 -1.9124640319617776 C 15.160814883543491 -2.058787769811219 15.032062377302925 -2.1638144807904323 14.88263218757288 -2.1641112586572886 C 14.867321513289166 -2.164000234848899 14.852041049163766 -2.162733898042926 14.836920969197287 -2.1603230361399746 L 14.775551764416786 -2.2767477415054427 C 14.99343502563254 -2.3315614834038896 15.217924452866612 -2.2149705843984373 15.298395035792097 -2.00520369687194 C 15.37886561871758 -1.7954368093454423 15.289950870283658 -1.5586180850398783 15.091309657574122 -1.4536450864535397 C 14.892668444864594 -1.3486720878672012 14.64691780837759 -1.4086351209543904 14.518948329441493 -1.5933009658736519 C 14.390978850505395 -1.7779668107929134 14.42112994275832 -2.0291238379825534 14.58917121656491 -2.1782539560552627 Z M 14.549521154217018 -2.256291339911944 C 14.351402732892439 -2.093825059113217 14.29890054406426 -1.8123785854874863 14.425118222698519 -1.5894093076376135 C 14.551335901332777 -1.3664400297877397 14.819669207381875 -1.266611004885811 15.060928855390532 -1.3528663438941986 C 15.302188503399194 -1.4391216829025861 15.446407067527673 -1.6864465767342165 15.402651982700291 -1.9388979459451257 C 15.35889689787291 -2.1913493151560353 15.13985752461074 -2.3757140360465185 14.883642380244165 -2.375746623291264 C 14.833630085838514 -2.3758377689659675 14.783867703387997 -2.3686924012294828 14.735901702068897 -2.354532577194303 L 14.626295797234594 -2.5626322674787834 C 15.002469254016923 -2.699546307327944 15.420445258828412 -2.5220108299373867 15.583098785526023 -2.156229810544345 C 15.74575231222363 -1.7904487911513036 15.597609187146105 -1.3611745188931894 15.243979354895224 -1.1735635766813948 C 14.890349522644346 -0.9859526344695988 14.451841021203553 -1.1039911048706381 14.240174735156412 -1.4437694256128433 C 14.02850844910927 -1.783547746355047 14.115874711790768 -2.229182038657083 14.440167797550536 -2.4638859338607833 Z M 14.399760090699182 -5.067910092262825 C 14.126502973116889 -5.05604032837524 13.698181280492523 -4.863598624495659 13.622416830146229 -4.6133233901850765 L 13.622416830146229 -4.6133233901850765 C 13.698181280492522 -4.863598624495659 14.12675552128471 -5.056545424710882 14.399760090699182 -5.067910092262825 Z M 11.098702989111256 -4.964112795288406 C 11.28631239759384 -5.042424867626338 11.48231921608772 -5.098862628593448 11.682846901281163 -5.132309875057173 C 11.482393192312076 -5.098788993786808 11.28641359446926 -5.042528529901105 11.098702989111258 -4.964617891624049 L 10.74362026515497 -4.358502288853716 Z M 7.71708302198844 -3.261938144175055 C 7.858190910933732 -3.2620500450209096 7.998506442859794 -3.240849457976256 8.1332824025574 -3.199053650387633 L 8.133282402557402 -3.199053650387633 L 7.975187249501474 -2.870741032220369 C 7.450622649012511 -3.0045955822194483 6.909925612270803 -2.7194324525735274 6.724135560518806 -2.2109374994898303 C 6.538345508766808 -1.7024425464061341 6.767842428316095 -1.13587175650596 7.2551399665141165 -0.9000197480181171 C 7.742437504712138 -0.6641677395302752 8.329168631631283 -0.8356841549397291 8.612704216790469 -1.2968702698543462 C 8.896239801949655 -1.7580563847689636 8.78443349741843 -2.3590311315909838 8.354009501232932 -2.6873910623823436 L 8.51185210612104 -3.0144409397105023 L 8.548724138622902 -3.090205390056794 L 8.586101267460405 -3.1692529665847586 L 8.94572985843747 -3.9170480915026564 L 9.193227062902022 -3.9170480915026564 L 9.198278026258441 -3.9170480915026564 L 9.202066248775756 -3.9170480915026564 L 9.202066248775756 -3.9218465066912547 L 9.19272196656638 -3.918815928677403 L 9.19272196656638 -3.918815928677403 L 9.407387909214206 -3.530144298400927 C 9.425213736395921 -3.5541462253613494 9.444529610792333 -3.577004749210378 9.465221439645209 -3.5985848518804104 L 9.465221439645209 -3.5985848518804104 C 9.48521547675924 -3.620262417803695 9.506376757398202 -3.640833543205714 9.528611029768273 -3.660206604828729 L 9.385668766781603 -3.919321025013045 L 13.288043055951263 -3.919321025013045 L 12.589999920094098 -2.6608735047611414 L 12.549844761410561 -2.5876345360930593 L 12.507416669216639 -2.511870085746768 C 12.518733925268275 -2.4687911623237957 12.526587953785848 -2.424876164161017 12.530903648823989 -2.380545038479862 C 12.5334291305022 -2.3552902216977656 12.534691871341304 -2.3285201159087423 12.534691871341304 -2.30200255828754 C 12.534682448841561 -2.269673706278366 12.532742795075052 -2.2373742544269306 12.528883263481504 -2.2052766100127856 L 12.528883263481422 -2.2052766100121084 C 12.4781215704967 -1.7990206993687314 12.132416364933697 -1.4943754351746974 11.7230020599647 -1.4951111620995348 L 11.056274896917333 -1.4951111620995348 C 11.069112559757702 -1.5294053074658303 11.075284216869619 -1.5658352279181238 11.074458365000442 -1.602444133423448 C 11.07497932410302 -1.634556024874172 11.070288365403822 -1.6665398341868856 11.060568215770289 -1.697149696356313 L 11.722496963629057 -1.697149696356313 C 11.890763893570401 -1.6975363746538839 12.05116412245736 -1.7684385889077419 12.164708805483578 -1.8926219782497449 L 12.302347556946009 -2.141381923553402 C 12.316506363818648 -2.19434209243234 12.323555385248184 -2.2489507765189782 12.32330905487515 -2.303770395462287 C 12.32331842010023 -2.6367515340453127 12.054711092614507 -2.907388639824122 11.721739319125305 -2.9098859982326224 L 10.68629183105961 -2.9098859982326224 C 10.705590373632464 -2.972784999145284 10.71496305717703 -3.038308577743208 10.714072129519916 -3.1040955392869476 L 10.714072129519916 -3.111924532489397 L 11.722244415461237 -3.111924532489397 C 12.08996357046976 -3.111918944053673 12.411863382958117 -2.8650048021707115 12.507164121048817 -2.5098497004041995 L 12.54959221324274 -2.587634536093059 L 12.54959221324274 -2.587634536093059 L 12.589747371926276 -2.6586005712507523 C 12.48163826888636 -2.9049697209217267 12.277125602393832 -3.096152543973222 12.024039476007296 -3.1874364346678683 L 12.58595914940896 -3.1874364346678683 C 12.683594100588621 -3.187436434667868 12.762742866883642 -3.2665852009628864 12.762742866883642 -3.3642201521425483 C 12.762742866883642 -3.4618551033222102 12.683594100588621 -3.541003869617229 12.58595914940896 -3.541003869617229 L 11.391406315615761 -3.541003869617229 C 11.296690817549056 -3.537320375765419 11.222065604059122 -3.459003060258743 11.222956687679174 -3.3642201521425483 C 11.22190660045855 -3.317393729495313 11.239324496688756 -3.2720346247291534 11.2714459359008 -3.2379460682320618 L 10.701192172961047 -3.2379460682320618 C 10.642163751932564 -3.5817789119817114 10.340573983633508 -3.830759571535115 9.991784369551935 -3.8236052694088962 C 9.823063147661466 -3.8240027296341284 9.65956810806889 -3.7650944567574163 9.529873770607377 -3.657176026814876 L 9.571544218297838 -3.58292686547551 C 9.687753702517004 -3.684949454179228 9.83714531812476 -3.7411508672624336 9.991784369551937 -3.7410220185314387 C 9.837124284333466 -3.7412669128685394 9.687693032744589 -3.6850505886530116 9.571544218297838 -3.5829268654755104 L 9.61371976232394 -3.5071624151292187 C 9.716283956944256 -3.6035211511458756 9.851814245796396 -3.65701043847952 9.992542014055399 -3.656670930479234 C 10.244106539243132 -3.6533432350302846 10.462950262982393 -3.483566686279196 10.528701774339321 -3.2407240980780934 C 10.533957796979026 -3.2199300372887283 10.538005341870855 -3.1988490743104525 10.540824086394728 -3.177587056122848 C 10.543761095048406 -3.1566604686654944 10.545447742323802 -3.1355773777230684 10.545875049751146 -3.114450014167606 L 10.545875049751146 -3.1023277021122 C 10.545750661488306 -3.0343870063928446 10.533256203862582 -2.9670367450815602 10.509003017249292 -2.9035722940371107 C 10.500668927711192 -2.8826107961079543 10.490819549166176 -2.861396750010993 10.479959977949875 -2.840435252081852 C 10.46803350502897 -2.8187685372535167 10.45479206082748 -2.7978521158396967 10.440309915601981 -2.7778033064622525 L 10.449906745979177 -2.777803306462251 L 10.440309915601981 -2.777803306462251 C 10.365865513096175 -2.674667481734557 10.25839840572613 -2.600082101246391 10.13573682520989 -2.5664204899960974 L 10.177912369235992 -2.4906560396498056 L 10.21958281692645 -2.418679811820829 C 10.402381330158175 -2.4781247869955627 10.553103058009382 -2.6094250217842747 10.637044938334519 -2.7823491734830283 L 11.7230020599647 -2.7823491734830283 C 11.988011213166637 -2.7823491734830283 12.202843578824545 -2.56751680782512 12.202843578824545 -2.3025076546231813 C 12.202843578824545 -2.0374985014212426 11.988011213166637 -1.8226661357633347 11.7230020599647 -1.8226661357633347 L 10.994400595801196 -1.8226661357633347 C 10.964207387268782 -1.8660048300949628 10.921975098448822 -1.899544818305411 10.872924927079307 -1.9191395358709458 L 10.875450408757516 -1.9206548248778716 C 11.028944435731308 -1.9206597367647005 11.167264639867504 -2.0132881631364947 11.22571711438433 -2.1552167527991046 C 11.284169588901158 -2.297145342461714 11.251199822444569 -2.4603185594557777 11.14222814359982 -2.5684184648697714 C 11.033256464755068 -2.676518370283764 10.869823698113228 -2.7081764661233403 10.72836917685952 -2.6485859068237168 C 10.586914655605813 -2.5889953475240928 10.495400204888231 -2.449935613761033 10.49662815702606 -2.296446498595478 C 10.500661344158996 -2.1496602729848315 10.584007693655606 -2.0166155201920986 10.714324677687735 -1.9489402196738217 L 10.472636081083067 -1.9489402196738217 L 10.220087913262095 -2.4090829814436314 C 10.192573396523603 -2.4006595038489347 10.164573331166938 -2.393912500148534 10.13624192154553 -2.3888791280179533 C 10.106718674634784 -2.3818250601882576 10.076771858431679 -2.376679269235048 10.046587321969083 -2.373473689780874 L 10.280699473539126 -1.9489402196738208 L 9.292731041023485 -1.9489402196738208 C 9.259060732355008 -2.441704462809185 8.998204496747281 -2.8908065042204165 8.586858911963867 -3.1642020032283393 L 8.549986879462006 -3.088437552882047 L 8.549986879462006 -3.088437552882047 L 8.513114846960145 -3.0078746873471567 C 8.869741554379031 -2.767691639743566 9.095336786584767 -2.3761627243451793 9.124281413086896 -1.9471723824990743 L 9.077054905704374 -1.9471723824990743 L 9.077054905704374 -1.868882450474573 C 9.009717351962289 -1.8648120770287204 8.943467284816624 -1.849976154656332 8.88082497930748 -1.8249390692737233 L 8.8497615546655 -1.814332046225243 L 8.8497615546655 -1.3812119384122763 L 8.88082497930748 -1.3706049153637951 C 8.928286434069888 -1.3519370650124967 8.977795204303217 -1.3389664454136962 9.028313109314928 -1.3319650456871863 C 9.033364072671347 -1.3453500985816982 9.037657391524304 -1.3587351514762092 9.042455806712901 -1.3723727525385416 C 8.992478054151912 -1.378518316894736 8.943501016857109 -1.3910808845197464 8.8967355138802 -1.4097498813760456 C 8.943851778549508 -1.391085062470316 8.993162132101274 -1.3785240774003311 9.043465999384185 -1.3723727525385416 C 9.048516962740605 -1.385757805433054 9.05760869678216 -1.399647954663207 9.062154563802938 -1.4135381038933605 C 9.024035410780035 -1.4167311266079978 8.986548859275361 -1.4252314784231173 8.950780821793888 -1.438792920675458 L 8.950780821793888 -1.7585189011368079 C 8.995216021437617 -1.7760040168920348 9.042441189495783 -1.785329276526709 9.090187410431065 -1.7860466514292943 C 9.10245880252928 -1.7886913115858314 9.115048922681911 -1.7895419953799276 9.127564539268569 -1.788572133107504 L 9.127564539268569 -1.788572133107504 C 9.110689814147573 -1.7889017768397468 9.093812585440004 -1.788057915404368 9.077054905704372 -1.7860466514292948 L 9.077054905704372 -1.4130330075577184 L 9.059881630292548 -1.415305941068107 C 9.055588311439593 -1.401415791837954 9.055588311439593 -1.3875256426078004 9.050789896250993 -1.374140589713289 C 9.045991481062394 -1.3607555368187767 9.03942522869905 -1.3471179357564447 9.03412171717481 -1.3337328828619333 C 8.77427198174757 -0.6706307346354139 8.061471123348014 -0.3046302348126808 7.371165709227272 -0.4798580271854176 C 6.680860295106531 -0.6550858195581535 6.228921547485091 -1.3167449447910777 6.316797933536293 -2.0235009739544734 C 6.404674319587496 -2.73025700311787 7.004885274226457 -3.261094303556545 7.717083021988441 -3.2619381441750552 Z M 12.597323816960904 -2.3247318933914274 L 12.597323816960904 -2.3247318933914274 Z M 10.77215820811874 -1.3650488556717337 C 10.755242707808135 -1.3643551621158334 10.7383024677392 -1.365540978920659 10.721648574554544 -1.3685845300212272 L 10.712051744177348 -1.3673217891821219 L 10.641338257187476 -1.3673217891821219 L 10.641338257187476 -1.3688370781890478 L 9.201813700607936 -1.3688370781890478 L 9.201813700607936 -1.8234237802667979 L 9.375061743733122 -1.8234237802667979 C 9.372788810222733 -1.8234237802667979 9.370768424880165 -1.829990032630143 9.368495491369778 -1.8312527734692483 C 9.370515876712345 -1.8312527734692483 9.373041358390555 -1.8312527734692483 9.375061743733122 -1.8312527734692483 L 10.348887478850791 -1.8274645509519334 L 10.348887478850791 -1.82392887660244 L 10.711799196009528 -1.82392887660244 L 10.715587418526841 -1.8307476771336062 C 10.734528531113416 -1.8307476771336062 10.752964547364346 -1.8287272917910387 10.770642919111815 -1.8287272917910387 C 10.80857806328762 -1.8106508882445747 10.845128325506051 -1.789801200558772 10.879996275778295 -1.7663478943392588 C 10.896920041168269 -1.7470724462665732 10.911657618449526 -1.7259824649847695 10.923939656979144 -1.7034634005518368 C 10.937416232333845 -1.6721137766144225 10.945034293109526 -1.638560070726037 10.946416443915211 -1.6044645187660151 C 10.948007688027683 -1.5653136257469988 10.937991250763773 -1.5265658289629216 10.91762595278362 -1.4930907767569663 C 10.903067395087012 -1.4702420696925773 10.886136996724353 -1.4489944197474403 10.867116319219427 -1.4297011866339027 C 10.82851635938437 -1.391145187049303 10.77567059874685 -1.3702994544794849 10.721143478218902 -1.3721202043707206 C 10.737837817552496 -1.3679358678173439 10.754950965879605 -1.3656484668033246 10.77215820811874 -1.3653014038395543 Z M 9.084126254403362 -1.8282221954553965 C 9.098772955942295 -1.8301690807091533 9.113553033105893 -1.8309291989632812 9.128322183772033 -1.8304951289657851 L 9.128322183772033 -1.8304951289657851 C 9.113559837592808 -1.8310129129748778 9.098779787146619 -1.8303372535259093 9.084126254403362 -1.8284747436232176 Z M 10.771905659950917 -1.9544962793658827 C 10.805943499102089 -1.9498192327127626 10.838920664424293 -1.9393109650064644 10.869389252729814 -1.9234328547239028 L 10.865348482044677 -1.9234328547239028 C 10.836196777998932 -1.9388837010198454 10.804576637457087 -1.9491388817361202 10.771905659950917 -1.95373863486242 Z M 10.8764606014288 -2.049454390466568 C 10.736982099743571 -2.049454390466568 10.623912433607828 -2.162524056602309 10.623912433607828 -2.3020025582875396 C 10.623912433607828 -2.4414810599727708 10.736982099743571 -2.554550726108512 10.8764606014288 -2.554550726108512 C 11.015939103114032 -2.554550726108512 11.129008769249772 -2.4414810599727708 11.129008769249772 -2.3020025582875396 C 11.129210103497783 -2.234891444512731 11.102691334176162 -2.170460017997723 11.055307525924604 -2.122934058321413 C 11.007923717673052 -2.0754080986451027 10.943572017204978 -2.048696443961053 10.8764606014288 -2.0486967459631056 Z M 9.29677181170862 -1.8539821085731356 L 9.29677181170862 -1.8539821085731356 L 9.309904316435311 -1.8506989823914628 Z M 9.29677181170862 -1.8567601384191659 L 9.29677181170862 -1.8567601384191659 C 9.29677181170862 -1.8703977394814988 9.29677181170862 -1.8928745264175655 9.29677181170862 -1.8928745264175655 C 9.29677181170862 -1.8928745264175655 9.29677181170862 -1.869640094978036 9.29677181170862 -1.8560024939157036 Z M 9.128322183772033 -1.8509515305592839 C 9.128477865343072 -1.8539472687992786 9.128986477796538 -1.8569141747778315 9.12983747277896 -1.8597907164330176 C 9.12983747277896 -1.8567601384191659 9.12983747277896 -1.8537295604053146 9.12983747277896 -1.8509515305592839 L 9.12983747277896 -1.8453954708672224 C 9.129202614979503 -1.8466023585327274 9.12869479547967 -1.8478719072823058 9.128322183772033 -1.849183693384537 Z M 9.13261550262499 -1.83175786980489 Z M 9.142969977505649 -1.83175786980489 L 9.142969977505649 -1.83175786980489 Z M 9.149283681701174 -1.3905562206216517 L 9.149283681701174 -1.3688370781890478 L 9.147515844526428 -1.3688370781890478 L 9.149283681701174 -1.3673217891821219 L 9.149283681701174 -1.366059048343017 L 9.141202140330902 -1.366059048343017 C 9.144556013557132 -1.3689717999437572 9.147082283190198 -1.3727176480203727 9.14852603719771 -1.3769186195593188 L 9.14852603719771 -1.3844950645939487 C 9.14852603719771 -1.3862629017686956 9.14347507384129 -1.388030738943442 9.14852603719771 -1.3897985761181895 L 9.14852603719771 -1.4102549777116877 L 9.155344837728876 -1.4102549777116877 C 9.152432070993267 -1.4037329774595708 9.150394040124546 -1.396854623277635 9.149283681701172 -1.3897985761181895 Z M 9.14322252567347 -1.7898348739466088 L 9.14322252567347 -1.7898348739466088 Z M 9.128322183772033 -1.3688370781890478 C 9.112874329036094 -1.3684639589568817 9.09742108551227 -1.3693083984937027 9.082105869060795 -1.3713625598672579 C 9.097434117021352 -1.3694501753373385 9.112876823727538 -1.3686063115829024 9.128322183772033 -1.3688370781890482 Z M 9.14296997750565 -1.326661534162946 L 9.14296997750565 -1.326661534162946 Z M 7.685261952842998 -0.35536128072348827 C 7.695616427723658 -0.35536128072348827 7.705970902604317 -0.35536128072348827 7.716325377484978 -0.35536128072348827 L 7.716325377484978 -0.35536128072348827 C 7.705970902604317 -0.3546036362200242 7.695616427723658 -0.3551087325556672 7.685261952842998 -0.35536128072348827 Z M 7.634752319278803 -0.3568765697304137 L 7.640308378970865 -0.3568765697304137 Z" fill="url(#gradient-82efe8fb-26cc-4088-b2a3-313581e0be36_0)" transform="matrix(1,0,0,1,0,0)" fill-rule="nonzero"></path></g><g clip-path="url(#SvgjsClipPath37566f38fbc06-3bce-4f3d-abcd-0159bebd247d)"><path d=" M 11.464645284283845 -4.854506890454104 C 11.327723467142887 -4.854609032844462 11.204231791015243 -4.772194435585995 11.151786885496083 -4.645714688877931 C 11.099341979976924 -4.519234942169866 11.128279238410734 -4.373615592533821 11.225097610743289 -4.276797220201267 C 11.321915983075844 -4.179978847868714 11.467535332711886 -4.1510415894349 11.59401507941995 -4.203486494954062 C 11.720494826128016 -4.255931400473222 11.802909423386483 -4.379423076600864 11.802807280996126 -4.516344893741822 C 11.802529119022008 -4.702991267617582 11.651291658159604 -4.8542287284799865 11.464645284283845 -4.854506890454104 Z M 11.464645284283845 -4.262281436913925 C 11.324329911588503 -4.262281436913925 11.210581827455947 -4.376029521046481 11.210581827455947 -4.516344893741823 C 11.210581827455947 -4.656660266437164 11.324329911588503 -4.770408350569721 11.464645284283845 -4.770408350569721 C 11.604960656979188 -4.770408350569721 11.718708741111742 -4.656660266437164 11.718708741111742 -4.516344893741823 C 11.718291547401172 -4.376284518316744 11.604706212604182 -4.2629249992947065 11.464645284283833 -4.2627865332495665 Z" fill="url(#gradient-82efe8fb-26cc-4088-b2a3-313581e0be36_1)" transform="matrix(1,0,0,1,0,0)" fill-rule="nonzero"></path></g><g clip-path="url(#SvgjsClipPath37566f38fbc06-3bce-4f3d-abcd-0159bebd247d)"><path d=" M 11.719466385615206 -1.922170113884798 C 11.928684138143051 -1.922170113884798 12.098288637346663 -2.0917746130884103 12.098288637346663 -2.300992365616256 C 12.098288637346663 -2.510210118144102 11.928684138143051 -2.679814617347714 11.719466385615206 -2.679814617347714 C 11.51024863308736 -2.679814617347714 11.340644133883748 -2.510210118144102 11.340644133883748 -2.300992365616256 C 11.340644133883748 -2.0917746130884103 11.51024863308736 -1.922170113884798 11.719466385615206 -1.922170113884798 Z M 11.719466385615206 -2.553540533437228 C 11.858944887300437 -2.553540533437228 11.972014553436178 -2.440470867301487 11.972014553436178 -2.300992365616256 C 11.972014553436178 -2.161513863931025 11.858944887300437 -2.048444197795284 11.719466385615206 -2.048444197795284 C 11.579987883929974 -2.048444197795284 11.466918217794234 -2.161513863931025 11.466918217794234 -2.300992365616256 C 11.466649596457618 -2.36814716198791 11.493138640495028 -2.4326436017306583 11.540529755465197 -2.48022428116071 C 11.587920870435365 -2.5278049605907613 11.652311052000869 -2.5545512633533383 11.719466385615203 -2.5545507261085123 Z" fill="url(#gradient-82efe8fb-26cc-4088-b2a3-313581e0be36_2)" transform="matrix(1,0,0,1,0,0)" fill-rule="nonzero"></path></g><g clip-path="url(#SvgjsClipPath37566f38fbc06-3bce-4f3d-abcd-0159bebd247d)"><path d=" M 12.302347556946009 -2.141129375385581 L 12.164708805483578 -1.8928745264175655 C 12.229702773409294 -1.9634850400031127 12.276891554683965 -2.0485980161370634 12.302347556946009 -2.1411293753855816 Z" fill="url(#gradient-82efe8fb-26cc-4088-b2a3-313581e0be36_3)" transform="matrix(1,0,0,1,0,0)" fill-rule="nonzero"></path></g><g clip-path="url(#SvgjsClipPath37566f38fbc06-3bce-4f3d-abcd-0159bebd247d)"><path d=" M 9.991784369551937 -2.5462166365704197 C 9.978651864825245 -2.5462166365704197 9.966529552769838 -2.5462166365704197 9.953144499875327 -2.5479844737451667 C 9.765981927343343 -2.5608209761370095 9.598040703420192 -2.66753201891209 9.506920008690146 -2.8315186749008 C 9.4157993139601 -2.9955053308895105 9.41388774765299 -3.194472281052609 9.50184092397925 -3.360179381457413 C 9.5168004116031 -3.3883398337193453 9.534209211446715 -3.4151291033816067 9.553865846550371 -3.440237150656662 C 9.571929802425572 -3.463773348696723 9.59195250261555 -3.485739180128765 9.61371976232394 -3.505899674290113 L 9.571544218297838 -3.581664124636405 L 9.529873770607377 -3.6574285749826965 C 9.5075375400356 -3.6388848373750573 9.486367411283569 -3.6189798557596022 9.466484180484313 -3.597827207376947 C 9.267953472388635 -3.388138383527359 9.213335835873254 -3.0803802595612284 9.32758862929748 -2.815181948670762 C 9.441841422721708 -2.549983637780296 9.703021865193085 -2.3782777102293386 9.991784369551937 -2.378524653137294 C 10.009967837635045 -2.378524653137294 10.028403853885976 -2.378524653137294 10.046334773801266 -2.380797586647683 C 10.076467539977742 -2.382866741576867 10.106422782611144 -2.387001408869928 10.135989373377711 -2.3931724468709104 C 10.16439322585425 -2.398849924356222 10.192400301999099 -2.4063578453709558 10.219835365094273 -2.4156492338069766 L 10.178164917403812 -2.491413684153269 L 10.135989373377711 -2.5671781344995606 C 10.107431241139114 -2.559442988946404 10.07829261557789 -2.554037562755336 10.048860255479475 -2.5510150517590184 C 10.029919142892902 -2.547479377409525 10.01097803030633 -2.5462166365704197 9.991784369551937 -2.5462166365704197 Z" fill="url(#gradient-82efe8fb-26cc-4088-b2a3-313581e0be36_4)" transform="matrix(1,0,0,1,0,0)" fill-rule="nonzero"></path></g><g clip-path="url(#SvgjsClipPath37566f38fbc06-3bce-4f3d-abcd-0159bebd247d)"><path d=" M 11.391658863783583 -3.565248493728042 L 12.58621169757678 -3.565248493728042 C 12.64485909894941 -3.565248492693824 12.69905153304623 -3.5965365083082372 12.728375233960742 -3.6473266476311283 C 12.757698934875254 -3.69811678695402 12.757698934745228 -3.7606928193819855 12.728375233619646 -3.811482958583015 C 12.699051532494064 -3.8622730977840445 12.64485909826722 -3.8935611131732477 12.58621169689459 -3.8935611118953055 L 11.391658863783583 -3.8935611118953055 C 11.333011462410953 -3.893561112929524 11.278819028314134 -3.8622730973151107 11.249495327399622 -3.8114829579922196 C 11.220171626485111 -3.7606928186693285 11.220171626615135 -3.6981167862413624 11.249495327740718 -3.647326647040333 C 11.278819028866302 -3.5965365078393035 11.333011463093143 -3.5652484924501 11.391658864465775 -3.565248493728042 Z" fill="url(#gradient-82efe8fb-26cc-4088-b2a3-313581e0be36_5)" transform="matrix(1,0,0,1,0,0)" fill-rule="nonzero"></path></g></g><g><path d=" M 1.306302978515625 1.6310083007812501 Q 1.5322500000000001 1.6310083007812501 1.737248291015625 1.6010815429687502 Q 1.9422465820312502 1.5711547851562502 2.1502375488281253 1.5217756347656253 L 2.1502375488281253 0.8963063964843752 L 1.3871052246093751 0.8963063964843752 Q 1.3691491699218752 0.8963063964843752 1.3504449462890626 0.8955582275390627 Q 1.33174072265625 0.8948100585937502 1.3160291748046875 0.8895728759765626 Q 1.3003176269531251 0.8843356933593751 1.2905914306640627 0.8738613281250002 Q 1.280865234375 0.8633869628906251 1.280865234375 0.8439345703125002 Q 1.280865234375 0.8244821777343752 1.2905914306640627 0.8140078125000001 Q 1.3003176269531251 0.8035334472656251 1.3152810058593751 0.7982962646484376 Q 1.3302443847656251 0.7930590820312502 1.3489486083984377 0.7923109130859376 Q 1.3676528320312502 0.7915627441406251 1.3871052246093751 0.7915627441406251 L 2.1502375488281253 0.7915627441406251 Q 2.2130837402343753 0.7915627441406251 2.23552880859375 0.8155041503906252 Q 2.257973876953125 0.8394455566406251 2.257973876953125 0.8963063964843752 L 2.257973876953125 1.5217756347656253 Q 2.257973876953125 1.5681621093750002 2.2235581054687503 1.5928516845703127 Q 2.189142333984375 1.6175412597656251 2.1502375488281253 1.6250229492187502 Q 1.9287795410156252 1.6684167480468752 1.72078857421875 1.6990916748046878 Q 1.5127976074218752 1.7297666015625002 1.306302978515625 1.7297666015625002 Q 1.0279841308593751 1.7297666015625002 0.8177486572265625 1.6818837890625002 Q 0.6075131835937501 1.6340009765625 0.466857421875 1.5300054931640628 Q 0.32620166015625 1.4260100097656252 0.2551256103515625 1.2621610107421877 Q 0.18404956054687502 1.0983120117187501 0.18404956054687502 0.8648833007812502 Q 0.18404956054687502 0.63145458984375 0.2551256103515625 0.4676055908203127 Q 0.32620166015625 0.3037565917968752 0.466857421875 0.19976110839843764 Q 0.6075131835937501 0.09576562500000008 0.8177486572265625 0.04788281250000015 Q 1.0279841308593751 0 1.306302978515625 0 Q 1.5008269042968752 0 1.6833801269531252 0.03516394042968751 Q 1.865933349609375 0.07032788085937502 2.054471923828125 0.14813745117187516 Q 2.078413330078125 0.15861181640625 2.0888876953125 0.17432336425781259 Q 2.0993620605468752 0.19003491210937518 2.0993620605468752 0.20499829101562517 Q 2.0993620605468752 0.2229543457031251 2.0858950195312502 0.23642138671875013 Q 2.072427978515625 0.24988842773437514 2.051479248046875 0.24988842773437514 Q 2.045493896484375 0.24988842773437514 2.0230488281250003 0.24240673828125003 Q 1.850969970703125 0.17058251953125003 1.66692041015625 0.13467041015625014 Q 1.4828708496093752 0.09875830078125003 1.306302978515625 0.09875830078125003 Q 1.0399548339843752 0.09875830078125003 0.8514162597656251 0.14290026855468763 Q 0.6628776855468751 0.187042236328125 0.5424224853515626 0.2805633544921875 Q 0.42196728515625004 0.3740844726562502 0.366602783203125 0.5184810791015626 Q 0.31123828125 0.6628776855468752 0.31123828125 0.8648833007812502 Q 0.31123828125 1.0668889160156252 0.366602783203125 1.2112855224609378 Q 0.42196728515625004 1.3556821289062502 0.5424224853515626 1.4492032470703127 Q 0.6628776855468751 1.5427243652343752 0.8514162597656251 1.5868663330078128 Q 1.0399548339843752 1.6310083007812501 1.306302978515625 1.6310083007812501 M 3.3263591308593754 0.6105058593750001 Q 3.1871997070312506 0.6105058593750001 3.0794633789062504 0.6344472656250002 Q 2.9717270507812508 0.658388671875 2.896161987304688 0.7115086669921876 Q 2.8205969238281257 0.7646286621093752 2.7786994628906254 0.8484235839843751 Q 2.7368020019531256 0.9322185058593752 2.7308166503906257 1.0534218750000002 L 3.8590554199218756 1.0534218750000002 L 3.8590554199218756 0.9726196289062502 Q 3.8590554199218756 0.8978027343750001 3.831373168945313 0.8319638671875002 Q 3.8036909179687504 0.7661250000000002 3.740844726562501 0.7167458496093752 Q 3.6779985351562505 0.6673666992187501 3.5762475585937503 0.6389362792968751 Q 3.4744965820312506 0.6105058593750001 3.3263591308593754 0.6105058593750001 M 3.2485495605468757 1.6250229492187502 Q 3.3907016601562505 1.6250229492187502 3.4969416503906254 1.6070668945312503 Q 3.6031816406250003 1.5891108398437501 3.6794948730468757 1.5636730957031253 Q 3.7558081054687507 1.5382353515625002 3.804439086914063 1.5113012695312502 Q 3.8530700683593757 1.4843671875000002 3.8800041503906257 1.4664111328125002 Q 3.8889821777343756 1.4634184570312503 3.8919748535156256 1.4634184570312503 Q 3.9084345703125005 1.4634184570312503 3.922649780273438 1.4791300048828127 Q 3.9368649902343753 1.4948415527343752 3.9368649902343753 1.5127976074218752 Q 3.9368649902343753 1.5292573242187502 3.9219016113281255 1.5397316894531252 Q 3.9084345703125005 1.5531987304687502 3.864292602539063 1.5816291503906252 Q 3.8201506347656258 1.6100595703125002 3.7378520507812505 1.6392381591796876 Q 3.6555534667968757 1.6684167480468752 3.5343500976562505 1.69086181640625 Q 3.413146728515626 1.7133068847656252 3.2470532226562505 1.7133068847656252 Q 3.0734780273437505 1.7133068847656252 2.9522746582031254 1.6699130859375002 Q 2.8310712890625007 1.6265192871093752 2.7547580566406253 1.5487097167968753 Q 2.6784448242187504 1.4709001464843752 2.6440290527343757 1.3616674804687503 Q 2.6096132812500006 1.2524348144531252 2.6096132812500006 1.1222534179687502 Q 2.6096132812500006 0.9486782226562501 2.6649777832031254 0.8334602050781251 Q 2.7203422851562507 0.7182421875000001 2.816856079101563 0.6486624755859376 Q 2.9133698730468756 0.5790827636718752 3.044299438476563 0.5506523437500002 Q 3.1752290039062503 0.5222219238281252 3.3263591308593754 0.5222219238281252 Q 3.6375974121093755 0.5222219238281252 3.792468383789063 0.6411807861328127 Q 3.947339355468751 0.7601396484375001 3.947339355468751 0.9815976562500002 Q 3.947339355468751 1.00254638671875 3.9443466796875004 1.0279841308593751 Q 3.941354003906251 1.0534218750000002 3.936116821289063 1.0766151123046876 Q 3.9308796386718754 1.0998083496093751 3.924146118164063 1.1155198974609377 Q 3.9174125976562504 1.1312314453125003 3.9114272460937505 1.1312314453125003 L 3.4715039062500006 1.1312314453125003 L 2.7293203125000005 1.11626806640625 Q 2.7323129882812505 1.2554274902343752 2.765980590820313 1.3519412841796876 Q 2.7996481933593755 1.4484550781250003 2.8647388916015633 1.5090567626953126 Q 2.9298295898437505 1.5696584472656252 3.0255952148437504 1.5973406982421876 Q 3.1213608398437507 1.6250229492187502 3.2485495605468757 1.6250229492187502 M 5.01273193359375 0.5745937500000002 Q 5.035177001953126 0.5745937500000002 5.046399536132813 0.5858162841796877 Q 5.057622070312501 0.5970388183593751 5.057622070312501 0.6105058593750001 Q 5.057622070312501 0.6239729003906251 5.046399536132813 0.6351954345703126 Q 5.035177001953126 0.6464179687500002 5.01273193359375 0.6464179687500002 L 4.515947753906251 0.6464179687500002 L 4.515947753906251 1.2808652343750002 Q 4.515947753906251 1.390097900390625 4.538392822265625 1.4574331054687502 Q 4.560837890625001 1.5247683105468752 4.598994506835938 1.5621767578125003 Q 4.637151123046875 1.5995852050781252 4.688774780273438 1.6123040771484378 Q 4.740398437500001 1.6250229492187502 4.798755615234375 1.6250229492187502 Q 4.870579833984376 1.6250229492187502 4.939411376953125 1.5995852050781252 Q 5.008242919921876 1.5741474609375001 5.098023193359376 1.5262646484375002 Q 5.115979248046876 1.5172866210937501 5.13243896484375 1.5172866210937501 Q 5.151891357421876 1.5172866210937501 5.163113891601563 1.5285091552734378 Q 5.1743364257812505 1.5397316894531252 5.1743364257812505 1.5561914062500002 Q 5.1743364257812505 1.5861181640625002 5.141416992187501 1.6040742187500001 Q 5.07857080078125 1.6384899902343752 5.029939819335938 1.6594387207031251 Q 4.981308837890626 1.6803874511718753 4.940159545898438 1.6923581542968753 Q 4.89901025390625 1.7043288574218751 4.8601054687500005 1.7088178710937503 Q 4.821200683593751 1.7133068847656252 4.777806884765626 1.7133068847656252 Q 4.697004638671876 1.7133068847656252 4.627424926757813 1.69086181640625 Q 4.55784521484375 1.6684167480468752 4.506221557617188 1.6182894287109377 Q 4.454597900390626 1.5681621093750002 4.425419311523438 1.4851153564453128 Q 4.396240722656251 1.4020686035156251 4.396240722656251 1.2808652343750002 L 4.396240722656251 0.6464179687500002 L 4.26456298828125 0.6464179687500002 Q 4.2436142578125 0.6464179687500002 4.233139892578126 0.6351954345703126 Q 4.222665527343751 0.6239729003906251 4.222665527343751 0.6105058593750001 Q 4.222665527343751 0.5970388183593751 4.233139892578126 0.5858162841796877 Q 4.2436142578125 0.5745937500000002 4.26456298828125 0.5745937500000002 L 4.396240722656251 0.5745937500000002 L 4.396240722656251 0.2020056152343752 Q 4.396240722656251 0.15412280273437506 4.415693115234376 0.14140393066406265 Q 4.435145507812501 0.12868505859375 4.456094238281251 0.12868505859375 Q 4.481531982421876 0.12868505859375 4.498739868164063 0.14140393066406265 Q 4.515947753906251 0.15412280273437506 4.515947753906251 0.2020056152343752 L 4.515947753906251 0.5745937500000002 L 5.01273193359375 0.5745937500000002 M 6.34746533203125 1.6310083007812501 Q 6.591368408203126 1.6310083007812501 6.75446923828125 1.5838736572265626 Q 6.9175700683593755 1.5367390136718753 7.015580200195313 1.4409733886718752 Q 7.113590332031251 1.3452077636718751 7.153991455078126 1.2008111572265627 Q 7.194392578125001 1.0564145507812501 7.194392578125001 0.8603942871093752 L 7.194392578125001 0.13616674804687512 Q 7.194392578125001 0.09726196289062505 7.206363281250001 0.06434252929687512 Q 7.2183339843750005 0.03142309570312518 7.255742431640625 0.03142309570312518 Q 7.2781875000000005 0.03142309570312518 7.290906372070313 0.04040112304687504 Q 7.303625244140625 0.049379150390625126 7.310358764648438 0.06434252929687512 Q 7.31709228515625 0.07930590820312511 7.319336791992188 0.09801013183593765 Q 7.321581298828125 0.1167143554687502 7.321581298828125 0.13616674804687512 L 7.321581298828125 0.8603942871093752 Q 7.321581298828125 1.0938229980468752 7.260979614257813 1.2591683349609377 Q 7.2003779296875 1.4245136718750002 7.079174560546876 1.5292573242187502 Q 6.9579711914062505 1.6340009765625 6.774669799804688 1.6818837890625002 Q 6.591368408203126 1.7297666015625002 6.34746533203125 1.7297666015625002 Q 6.10206591796875 1.7297666015625002 5.9195126953125 1.6818837890625002 Q 5.736959472656251 1.6340009765625 5.614259765625 1.5292573242187502 Q 5.49156005859375 1.4245136718750002 5.4309583740234375 1.2591683349609377 Q 5.370356689453125 1.0938229980468752 5.370356689453125 0.8603942871093752 L 5.370356689453125 0.13616674804687512 Q 5.370356689453125 0.1167143554687502 5.372601196289063 0.09801013183593765 Q 5.3748457031250005 0.07930590820312511 5.382327392578126 0.06434252929687512 Q 5.389809082031251 0.049379150390625126 5.402527954101563 0.04040112304687504 Q 5.415246826171876 0.03142309570312518 5.43769189453125 0.03142309570312518 Q 5.4751003417968755 0.03142309570312518 5.486322875976563 0.06434252929687512 Q 5.49754541015625 0.09726196289062505 5.49754541015625 0.13616674804687512 L 5.49754541015625 0.8603942871093752 Q 5.49754541015625 1.0564145507812501 5.538694702148438 1.2008111572265627 Q 5.579843994140625 1.3452077636718751 5.6778541259765625 1.4409733886718752 Q 5.775864257812501 1.5367390136718753 5.938965087890625 1.5838736572265626 Q 6.10206591796875 1.6310083007812501 6.34746533203125 1.6310083007812501 M 8.61591357421875 0.558134033203125 Q 8.632373291015625 0.5626230468750002 8.639854980468751 0.5753419189453126 Q 8.647336669921875 0.588060791015625 8.647336669921875 0.6030241699218752 Q 8.647336669921875 0.6224765625000002 8.634617797851563 0.6389362792968751 Q 8.62189892578125 0.6553959960937501 8.596461181640626 0.6553959960937501 Q 8.5889794921875 0.6553959960937501 8.587483154296875 0.6546478271484377 Q 8.585986816406251 0.6538996582031251 8.578505126953125 0.6524033203125001 Q 8.52014794921875 0.6359436035156252 8.467027954101562 0.6269655761718751 Q 8.413907958984375 0.6179875488281252 8.351061767578125 0.6179875488281252 Q 8.26277783203125 0.6179875488281252 8.182723754882813 0.6351954345703126 Q 8.102669677734376 0.6524033203125001 8.037578979492189 0.6875672607421877 Q 7.97248828125 0.7227312011718752 7.92460546875 0.7773475341796876 Q 7.87672265625 0.8319638671875002 7.8527812500000005 0.9052844238281251 L 7.8527812500000005 1.5935998535156253 Q 7.8527812500000005 1.6325046386718751 7.842306884765625 1.6654240722656253 Q 7.83183251953125 1.6983435058593752 7.794424072265625 1.6983435058593752 Q 7.773475341796876 1.6983435058593752 7.760756469726562 1.6893654785156251 Q 7.74803759765625 1.6803874511718753 7.74205224609375 1.6654240722656253 Q 7.73606689453125 1.6504606933593753 7.734570556640625 1.6317564697265627 Q 7.733074218750001 1.6130522460937502 7.733074218750001 1.5935998535156253 L 7.733074218750001 0.6359436035156252 Q 7.733074218750001 0.60152783203125 7.745044921875 0.5768382568359376 Q 7.757015625 0.5521486816406251 7.800409423828126 0.5521486816406251 Q 7.833328857421876 0.5521486816406251 7.843055053710938 0.5760900878906252 Q 7.8527812500000005 0.6000314941406251 7.8527812500000005 0.6359436035156252 L 7.8527812500000005 0.8095187988281252 Q 7.87672265625 0.7182421875000001 7.9358280029296875 0.6613813476562502 Q 7.994933349609375 0.6045205078125002 8.067505737304687 0.5738455810546876 Q 8.140078125 0.543170654296875 8.216391357421875 0.5326962890625002 Q 8.29270458984375 0.5222219238281252 8.351061767578125 0.5222219238281252 Q 8.407922607421876 0.5222219238281252 8.449071899414063 0.5259627685546877 Q 8.49022119140625 0.52970361328125 8.52014794921875 0.5349407958984376 Q 8.55007470703125 0.5401779785156251 8.572519775390624 0.5461633300781252 Q 8.59496484375 0.5521486816406251 8.61591357421875 0.558134033203125 M 10.579108886718751 1.2105373535156252 Q 10.579108886718751 1.363163818359375 10.520751708984376 1.4581812744140628 Q 10.462394531250002 1.5531987304687502 10.359895385742188 1.6063187255859377 Q 10.257396240234376 1.6594387207031251 10.11823681640625 1.6788911132812503 Q 9.979077392578127 1.6983435058593752 9.818969238281252 1.6983435058593752 L 8.95707861328125 1.6983435058593752 Q 8.931640869140626 1.6983435058593752 8.918921997070314 1.6833801269531252 Q 8.906203125000001 1.6684167480468752 8.906203125000001 1.6459716796875001 L 8.906203125000001 0.08678759765624999 Q 8.906203125000001 0.059853515625000187 8.922662841796877 0.04563830566406257 Q 8.939122558593752 0.03142309570312518 8.964560302734377 0.03142309570312518 L 9.649883056640626 0.03142309570312518 Q 9.757619384765626 0.03142309570312518 9.862363037109375 0.033667602539062536 Q 9.967106689453127 0.03591210937500011 10.06062780761719 0.04863098144531253 Q 10.154148925781252 0.06134985351562516 10.232706665039064 0.08678759765624999 Q 10.311264404296876 0.11222534179687504 10.36887341308594 0.15861181640625 Q 10.426482421875 0.20499829101562517 10.458653686523439 0.2753261718750002 Q 10.490824951171877 0.3456540527343752 10.490824951171877 0.4474050292968752 Q 10.490824951171877 0.5341926269531252 10.466883544921876 0.5940461425781252 Q 10.442942138671876 0.6538996582031251 10.406281860351564 0.6943007812500002 Q 10.369621582031252 0.7347019042968751 10.324731445312501 0.7578951416015627 Q 10.27984130859375 0.7810883789062502 10.23794384765625 0.7923109130859376 Q 10.196046386718752 0.8035334472656251 10.161630615234376 0.8065261230468751 Q 10.127214843750002 0.8095187988281252 10.110755126953126 0.8095187988281252 L 10.100280761718752 0.8095187988281252 Q 10.191557373046876 0.8184968261718751 10.276848632812502 0.8409418945312501 Q 10.362139892578126 0.8633869628906251 10.428726928710939 0.9090252685546877 Q 10.495313964843751 0.9546635742187501 10.536463256835939 1.0279841308593751 Q 10.577612548828126 1.1013046875000003 10.579108886718751 1.2105373535156252 M 10.363636230468751 0.4474050292968752 Q 10.363636230468751 0.37109179687500005 10.338198486328126 0.3119864501953127 Q 10.312760742187502 0.2528811035156251 10.240936523437501 0.21247998046875005 Q 10.169112304687502 0.172078857421875 10.040427246093751 0.1511301269531251 Q 9.911742187500002 0.130181396484375 9.70524755859375 0.130181396484375 L 9.033391845703127 0.130181396484375 L 9.033391845703127 0.7721103515625002 L 9.741159667968752 0.7721103515625002 Q 9.902764160156252 0.7721103515625002 10.020226684570314 0.7593914794921877 Q 10.137689208984376 0.7466726074218751 10.214002441406251 0.7107604980468751 Q 10.290315673828125 0.6748483886718752 10.32697595214844 0.6120021972656251 Q 10.363636230468751 0.5491560058593752 10.363636230468751 0.4474050292968752 M 10.451920166015626 1.2105373535156252 Q 10.451920166015626 1.1072900390625002 10.401792846679689 1.0384584960937502 Q 10.351665527343751 0.9696269531250001 10.259640747070314 0.9292258300781252 Q 10.167615966796877 0.8888247070312502 10.035938232421877 0.8716168212890627 Q 9.904260498046876 0.8544089355468751 9.741159667968752 0.8544089355468751 L 9.033391845703127 0.8544089355468751 L 9.033391845703127 1.5995852050781252 L 9.875830078125002 1.5995852050781252 Q 10.077835693359376 1.5995852050781252 10.193801879882814 1.5666657714843752 Q 10.309768066406251 1.533746337890625 10.366628906250002 1.4798781738281253 Q 10.423489746093752 1.4260100097656252 10.437704956054688 1.3556821289062502 Q 10.451920166015626 1.2853542480468751 10.451920166015626 1.2105373535156252 M 11.132753906250002 1.6040742187500001 Q 11.132753906250002 1.6235266113281253 11.131257568359377 1.6407344970703126 Q 11.129761230468752 1.6579423828125002 11.124524047851564 1.6706612548828128 Q 11.119286865234377 1.6833801269531252 11.107316162109377 1.69086181640625 Q 11.095345458984378 1.6983435058593752 11.072900390625001 1.6983435058593752 Q 11.031002929687501 1.6983435058593752 11.022024902343752 1.6729057617187502 Q 11.013046875000002 1.647468017578125 11.013046875000002 1.6040742187500001 L 11.013046875000002 0.6434252929687501 Q 11.013046875000002 0.6060168457031252 11.023521240234377 0.5790827636718752 Q 11.033995605468752 0.5521486816406251 11.075893066406252 0.5521486816406251 Q 11.113301513671876 0.5521486816406251 11.12302770996094 0.5790827636718752 Q 11.132753906250002 0.6060168457031252 11.132753906250002 0.6404326171875001 L 11.132753906250002 1.6040742187500001 M 10.993594482421877 0.21397631835937503 Q 10.993594482421877 0.17956054687500012 11.016039550781253 0.15636730957031264 Q 11.038484619140627 0.13317407226562517 11.072900390625001 0.13317407226562517 Q 11.107316162109377 0.13317407226562517 11.131257568359377 0.15636730957031264 Q 11.155198974609377 0.17956054687500012 11.155198974609377 0.21397631835937503 Q 11.155198974609377 0.24839208984375016 11.131257568359377 0.26934082031250006 Q 11.107316162109377 0.2902895507812502 11.072900390625001 0.2902895507812502 Q 11.038484619140627 0.2902895507812502 11.016039550781253 0.26934082031250006 Q 10.993594482421877 0.24839208984375016 10.993594482421877 0.21397631835937503 M 12.745806152343752 1.6100595703125002 Q 12.756280517578126 1.6205339355468753 12.759273193359377 1.6310083007812501 Q 12.762265869140627 1.6414826660156252 12.765258544921876 1.6534533691406252 Q 12.765258544921876 1.6744020996093751 12.751043334960938 1.6863728027343752 Q 12.736828125000002 1.6983435058593752 12.712886718750001 1.6983435058593752 Q 12.700916015625001 1.6998398437500002 12.689693481445314 1.6931063232421877 Q 12.678470947265627 1.6863728027343752 12.666500244140627 1.6744020996093751 L 11.979681152343751 1.0549182128906252 L 11.752237792968751 1.1821069335937502 L 11.752237792968751 1.6325046386718751 Q 11.752237792968751 1.6669204101562503 11.732785400390627 1.6826319580078126 Q 11.713333007812501 1.6983435058593752 11.692384277343752 1.6983435058593752 Q 11.672931884765626 1.6983435058593752 11.65273132324219 1.6826319580078126 Q 11.632530761718751 1.6669204101562503 11.632530761718751 1.6325046386718751 L 11.632530761718751 0.09726196289062505 Q 11.632530761718751 0.06733520507812507 11.654227661132813 0.05237182617187508 Q 11.675924560546877 0.03740844726562509 11.695376953125 0.03740844726562509 Q 11.716325683593752 0.03740844726562509 11.73428173828125 0.05237182617187508 Q 11.752237792968751 0.06733520507812507 11.752237792968751 0.09726196289062505 L 11.752237792968751 1.0848449707031251 L 12.688945312500001 0.5401779785156251 Q 12.69792333984375 0.5356889648437502 12.708397705078127 0.5356889648437502 Q 12.727850097656251 0.5356889648437502 12.740568969726564 0.5506523437500002 Q 12.753287841796876 0.5656157226562502 12.753287841796876 0.5820754394531251 Q 12.753287841796876 0.60152783203125 12.727850097656251 0.6179875488281252 L 12.070957763671876 1.0085317382812502 L 12.745806152343752 1.6100595703125002 M 13.722914794921877 0.6105058593750001 Q 13.583755371093751 0.6105058593750001 13.476019042968751 0.6344472656250002 Q 13.368282714843751 0.658388671875 13.29271765136719 0.7115086669921876 Q 13.217152587890627 0.7646286621093752 13.175255126953127 0.8484235839843751 Q 13.133357666015627 0.9322185058593752 13.127372314453126 1.0534218750000002 L 14.255611083984377 1.0534218750000002 L 14.255611083984377 0.9726196289062502 Q 14.255611083984377 0.8978027343750001 14.227928833007814 0.8319638671875002 Q 14.200246582031252 0.7661250000000002 14.137400390625002 0.7167458496093752 Q 14.074554199218753 0.6673666992187501 13.972803222656252 0.6389362792968751 Q 13.871052246093752 0.6105058593750001 13.722914794921877 0.6105058593750001 M 13.645105224609377 1.6250229492187502 Q 13.787257324218752 1.6250229492187502 13.893497314453127 1.6070668945312503 Q 13.999737304687502 1.5891108398437501 14.076050537109376 1.5636730957031253 Q 14.152363769531252 1.5382353515625002 14.200994750976564 1.5113012695312502 Q 14.249625732421876 1.4843671875000002 14.276559814453126 1.4664111328125002 Q 14.285537841796877 1.4634184570312503 14.288530517578128 1.4634184570312503 Q 14.304990234375001 1.4634184570312503 14.319205444335939 1.4791300048828127 Q 14.333420654296877 1.4948415527343752 14.333420654296877 1.5127976074218752 Q 14.333420654296877 1.5292573242187502 14.318457275390626 1.5397316894531252 Q 14.304990234375001 1.5531987304687502 14.260848266601565 1.5816291503906252 Q 14.216706298828127 1.6100595703125002 14.134407714843752 1.6392381591796876 Q 14.052109130859376 1.6684167480468752 13.930905761718751 1.69086181640625 Q 13.809702392578126 1.7133068847656252 13.643608886718752 1.7133068847656252 Q 13.470033691406252 1.7133068847656252 13.348830322265627 1.6699130859375002 Q 13.227626953125002 1.6265192871093752 13.151313720703127 1.5487097167968753 Q 13.075000488281251 1.4709001464843752 13.040584716796877 1.3616674804687503 Q 13.006168945312501 1.2524348144531252 13.006168945312501 1.1222534179687502 Q 13.006168945312501 0.9486782226562501 13.061533447265626 0.8334602050781251 Q 13.116897949218751 0.7182421875000001 13.213411743164064 0.6486624755859376 Q 13.309925537109377 0.5790827636718752 13.440855102539064 0.5506523437500002 Q 13.571784667968751 0.5222219238281252 13.722914794921877 0.5222219238281252 Q 14.034153076171876 0.5222219238281252 14.189024047851564 0.6411807861328127 Q 14.343895019531251 0.7601396484375001 14.343895019531251 0.9815976562500002 Q 14.343895019531251 1.00254638671875 14.340902343750003 1.0279841308593751 Q 14.337909667968752 1.0534218750000002 14.332672485351564 1.0766151123046876 Q 14.327435302734377 1.0998083496093751 14.320701782226564 1.1155198974609377 Q 14.313968261718752 1.1312314453125003 14.307982910156252 1.1312314453125003 L 13.868059570312502 1.1312314453125003 L 13.1258759765625 1.11626806640625 Q 13.128868652343751 1.2554274902343752 13.162536254882815 1.3519412841796876 Q 13.196203857421876 1.4484550781250003 13.261294555664064 1.5090567626953126 Q 13.326385253906253 1.5696584472656252 13.422150878906251 1.5973406982421876 Q 13.517916503906251 1.6250229492187502 13.645105224609377 1.6250229492187502 M 15.796839111328127 1.4903525390625 L 16.72456860351563 0.09576562500000008 Q 16.747013671875003 0.06134985351562516 16.77020690917969 0.04638647460937517 Q 16.793400146484377 0.03142309570312518 16.81584521484375 0.03142309570312518 Q 16.844275634765626 0.03142309570312518 16.86297985839844 0.054616333007812656 Q 16.881684082031253 0.07780957031250013 16.881684082031253 0.11222534179687504 L 16.881684082031253 1.5935998535156253 Q 16.881684082031253 1.6369936523437503 16.871209716796876 1.6676685791015626 Q 16.860735351562504 1.6983435058593752 16.817341552734376 1.6983435058593752 Q 16.779933105468753 1.6983435058593752 16.76721423339844 1.6676685791015626 Q 16.75449536132813 1.6369936523437503 16.75449536132813 1.5935998535156253 L 16.75449536132813 0.26485180664062513 L 15.870159667968753 1.5696584472656252 Q 15.834247558593752 1.6205339355468753 15.796839111328127 1.6205339355468753 Q 15.756437988281252 1.6205339355468753 15.723518554687502 1.5696584472656252 L 14.839182861328128 0.26485180664062513 L 14.839182861328128 1.5935998535156253 Q 14.839182861328128 1.6369936523437503 14.826463989257816 1.6676685791015626 Q 14.813745117187503 1.6983435058593752 14.776336669921877 1.6983435058593752 Q 14.732942871093753 1.6983435058593752 14.722468505859377 1.6676685791015626 Q 14.711994140625002 1.6369936523437503 14.711994140625002 1.5935998535156253 L 14.711994140625002 0.11222534179687504 Q 14.711994140625002 0.07780957031250013 14.730698364257815 0.054616333007812656 Q 14.749402587890627 0.03142309570312518 14.777833007812502 0.03142309570312518 Q 14.798781738281253 0.03142309570312518 14.82197497558594 0.04638647460937517 Q 14.845168212890627 0.06134985351562516 14.869109619140627 0.09576562500000008 L 15.796839111328127 1.4903525390625 M 18.023389892578127 1.7133068847656252 Q 17.816895263671878 1.7133068847656252 17.6747431640625 1.6721575927734378 Q 17.53259106445313 1.6310083007812501 17.445055297851564 1.5546950683593752 Q 17.357519531250002 1.4783818359375003 17.318614746093754 1.3691491699218752 Q 17.279709960937502 1.25991650390625 17.279709960937502 1.1222534179687502 Q 17.279709960937502 0.9636416015625001 17.32385192871094 0.8506680908203127 Q 17.36799389648438 0.7376945800781252 17.460018676757816 0.6643740234375002 Q 17.552043457031253 0.5910534667968752 17.69195104980469 0.5566376953125001 Q 17.831858642578126 0.5222219238281252 18.023389892578127 0.5222219238281252 Q 18.214921142578127 0.5222219238281252 18.354828735351564 0.5566376953125001 Q 18.494736328125004 0.5910534667968752 18.58676110839844 0.6643740234375002 Q 18.67878588867188 0.7376945800781252 18.722927856445317 0.8506680908203127 Q 18.76706982421875 0.9636416015625001 18.76706982421875 1.1222534179687502 Q 18.76706982421875 1.25991650390625 18.728165039062503 1.3691491699218752 Q 18.68926025390625 1.4783818359375003 18.60172448730469 1.5546950683593752 Q 18.514188720703128 1.6310083007812501 18.372036621093752 1.6721575927734378 Q 18.22988452148438 1.7133068847656252 18.023389892578127 1.7133068847656252 M 18.023389892578127 1.6250229492187502 Q 18.159556640625002 1.6250229492187502 18.258314941406255 1.6048223876953127 Q 18.357073242187504 1.5846218261718752 18.426652954101566 1.5487097167968753 Q 18.49623266601563 1.5127976074218752 18.538878295898442 1.4649147949218753 Q 18.58152392578125 1.4170319824218751 18.606213500976565 1.3609193115234377 Q 18.63090307617188 1.3048066406250003 18.639132934570316 1.2442049560546877 Q 18.647362792968753 1.1836032714843752 18.647362792968753 1.1222534179687502 Q 18.647362792968753 0.9830939941406251 18.611450683593752 0.8858320312500002 Q 18.575538574218754 0.7885700683593752 18.49922534179688 0.7272202148437501 Q 18.422912109375 0.6658703613281252 18.30470141601563 0.6381881103515625 Q 18.186490722656252 0.6105058593750001 18.023389892578127 0.6105058593750001 Q 17.858792724609376 0.6105058593750001 17.741330200195314 0.6381881103515625 Q 17.623867675781252 0.6658703613281252 17.547554443359378 0.7272202148437501 Q 17.471241210937503 0.7885700683593752 17.435329101562502 0.8858320312500002 Q 17.399416992187504 0.9830939941406251 17.399416992187504 1.1222534179687502 Q 17.399416992187504 1.1836032714843752 17.40764685058594 1.2442049560546877 Q 17.415876708984378 1.3048066406250003 17.440566284179692 1.3609193115234377 Q 17.465255859375002 1.4170319824218751 17.507901489257815 1.4649147949218753 Q 17.550547119140628 1.5127976074218752 17.62012683105469 1.5487097167968753 Q 17.689706542968754 1.5846218261718752 17.788464843750003 1.6048223876953127 Q 17.88722314453125 1.6250229492187502 18.023389892578127 1.6250229492187502 M 19.79804663085938 1.7133068847656252 Q 19.663376220703128 1.7133068847656252 19.542921020507816 1.6856246337890628 Q 19.422465820312503 1.6579423828125002 19.33193737792969 1.590607177734375 Q 19.24140893554688 1.5232719726562503 19.188288940429693 1.4110466308593752 Q 19.135168945312504 1.2988212890625002 19.135168945312504 1.129735107421875 Q 19.135168945312504 0.9621452636718751 19.179310913085942 0.8461790771484377 Q 19.22345288085938 0.7302128906250002 19.30799597167969 0.658388671875 Q 19.392539062500003 0.586564453125 19.515986938476566 0.5543931884765627 Q 19.63943481445313 0.5222219238281252 19.79804663085938 0.5222219238281252 Q 19.956658447265628 0.5222219238281252 20.07038012695313 0.5409261474609377 Q 20.18410180664063 0.55963037109375 20.26265954589844 0.588060791015625 Q 20.341217285156254 0.6164912109375 20.391344604492193 0.6501588134765626 Q 20.44147192382813 0.6838264160156251 20.47139868164063 0.7122568359375001 L 20.47139868164063 0.1376630859375001 Q 20.47139868164063 0.11821069335937517 20.472146850585943 0.09875830078125003 Q 20.472895019531254 0.07930590820312511 20.478880371093755 0.06434252929687512 Q 20.484865722656256 0.049379150390625126 20.496088256835943 0.04040112304687504 Q 20.50731079101563 0.03142309570312518 20.529755859375005 0.03142309570312518 Q 20.55220092773438 0.03142309570312518 20.56417163085938 0.039652954101562665 Q 20.57614233398438 0.04788281250000015 20.58212768554688 0.06134985351562516 Q 20.58811303710938 0.07481689453125018 20.589609375000006 0.0935211181640625 Q 20.59110571289063 0.11222534179687504 20.59110571289063 0.13467041015625014 L 20.59110571289063 1.6175412597656251 Q 20.59110571289063 1.6654240722656253 20.572401489257818 1.6818837890625002 Q 20.553697265625004 1.6983435058593752 20.532748535156255 1.6983435058593752 Q 20.50731079101563 1.6983435058593752 20.489354736328128 1.6833801269531252 Q 20.47139868164063 1.6684167480468752 20.47139868164063 1.6205339355468753 L 20.47139868164063 1.4125429687500002 Q 20.454938964843755 1.476885498046875 20.413041503906253 1.5240201416015626 Q 20.371144042968755 1.5711547851562502 20.313535034179694 1.6040742187500001 Q 20.25592602539063 1.6369936523437503 20.18709448242188 1.6586905517578128 Q 20.11826293945313 1.6803874511718753 20.048683227539065 1.6923581542968753 Q 19.979103515625006 1.7043288574218751 19.914012817382815 1.7088178710937503 Q 19.848922119140628 1.7133068847656252 19.79804663085938 1.7133068847656252 M 19.79804663085938 1.6250229492187502 Q 19.88782690429688 1.6235266113281253 19.994066894531255 1.6108077392578126 Q 20.10030688476563 1.5980888671875002 20.197568847656253 1.5651694335937503 Q 20.29483081054688 1.5322500000000001 20.36964770507813 1.4738928222656251 Q 20.44446459960938 1.4155356445312501 20.47139868164063 1.3212663574218753 L 20.47139868164063 0.7825847167968751 Q 20.436982910156253 0.7556506347656251 20.383862915039067 0.7257238769531251 Q 20.330742919921878 0.6957971191406251 20.250688842773442 0.6696112060546877 Q 20.170634765625003 0.6434252929687501 20.059157592773442 0.6269655761718751 Q 19.94768041992188 0.6105058593750001 19.79804663085938 0.6105058593750001 Q 19.65439819335938 0.6105058593750001 19.551899047851567 0.6404326171875001 Q 19.449399902343753 0.6703593750000001 19.38281286621094 0.7339537353515626 Q 19.316225830078128 0.7975480957031251 19.285550903320317 0.8955582275390627 Q 19.254875976562506 0.9935683593750002 19.254875976562506 1.129735107421875 Q 19.254875976562506 1.2718872070312501 19.29752160644532 1.3669046630859376 Q 19.340167236328128 1.4619221191406253 19.413487792968755 1.5187829589843753 Q 19.48680834960938 1.575643798828125 19.586314819335943 1.6003333740234378 Q 19.685821289062506 1.6250229492187502 19.79804663085938 1.6250229492187502 M 22.313390625000004 1.3856088867187502 Q 22.313390625000004 1.306302978515625 22.257277954101568 1.2629091796875 Q 22.20116528320313 1.219515380859375 22.109140502929694 1.1993148193359378 Q 22.017115722656257 1.1791142578125 21.89965319824219 1.1738770751953127 Q 21.78219067382813 1.1686398925781252 21.66023913574219 1.1648990478515626 Q 21.538287597656254 1.1611582031250003 21.42082507324219 1.1514320068359378 Q 21.30336254882813 1.1417058105468751 21.211337768554692 1.1110308837890628 Q 21.119312988281255 1.0803559570312502 21.06320031738282 1.0227469482421876 Q 21.00708764648438 0.9651379394531252 21.00708764648438 0.8648833007812502 Q 21.00708764648438 0.7616359863281251 21.06320031738282 0.6957971191406251 Q 21.119312988281255 0.629958251953125 21.21058959960938 0.5910534667968752 Q 21.301866210937504 0.5521486816406251 21.41708422851563 0.5371853027343751 Q 21.532302246093757 0.5222219238281252 21.652009277343755 0.5222219238281252 Q 21.84802954101563 0.5222219238281252 22.017115722656257 0.5543931884765627 Q 22.18620190429688 0.586564453125 22.331346679687506 0.6628776855468752 Q 22.346310058593755 0.6703593750000001 22.351547241210945 0.6815819091796875 Q 22.35678442382813 0.6928044433593752 22.358280761718756 0.7047751464843751 Q 22.358280761718756 0.7242275390625001 22.346310058593755 0.7391909179687501 Q 22.334339355468757 0.7541542968750001 22.319375976562505 0.7541542968750001 Q 22.310397949218757 0.7541542968750001 22.307405273437507 0.7511616210937502 Q 22.18021655273438 0.6868190917968751 22.019360229492193 0.6486624755859376 Q 21.858503906250007 0.6105058593750001 21.657994628906255 0.6105058593750001 Q 21.556243652343756 0.6105058593750001 21.460478027343754 0.6232247314453125 Q 21.364712402343756 0.6359436035156252 21.290643676757817 0.6651221923828126 Q 21.21657495117188 0.6943007812500002 21.17168481445313 0.7429317626953127 Q 21.12679467773438 0.7915627441406251 21.12679467773438 0.8648833007812502 Q 21.12679467773438 0.9397001953125002 21.182907348632817 0.9801013183593752 Q 21.239020019531257 1.0205024414062502 21.331044799804694 1.0392066650390626 Q 21.42306958007813 1.0579108886718753 21.540532104492193 1.06239990234375 Q 21.657994628906255 1.0668889160156252 21.779946166992193 1.0713779296875001 Q 21.90189770507813 1.075866943359375 22.019360229492193 1.0870894775390627 Q 22.136822753906255 1.0983120117187501 22.228847534179693 1.1304832763671877 Q 22.32087231445313 1.162654541015625 22.37698498535157 1.2232562255859376 Q 22.433097656250006 1.2838579101562502 22.433097656250006 1.3856088867187502 Q 22.433097656250006 1.476885498046875 22.376236816406255 1.5397316894531252 Q 22.319375976562505 1.6025778808593751 22.22510668945313 1.6407344970703126 Q 22.130837402343754 1.6788911132812503 22.00738952636719 1.6960989990234376 Q 21.883941650390632 1.7133068847656252 21.75226391601563 1.7133068847656252 Q 21.671461669921882 1.7133068847656252 21.57794055175782 1.7095660400390627 Q 21.484419433593757 1.7058251953125003 21.39089831542969 1.6916099853515627 Q 21.29737719726563 1.6773947753906253 21.211337768554692 1.6482161865234377 Q 21.125298339843756 1.61903759765625 21.06095581054688 1.5681621093750002 Q 21.04000708007813 1.5517023925781253 21.04000708007813 1.5292573242187502 Q 21.04000708007813 1.5098049316406252 21.051229614257817 1.4955897216796876 Q 21.062452148437504 1.4813745117187502 21.07891186523438 1.4813745117187502 Q 21.09088256835938 1.4813745117187502 21.09686791992188 1.4873598632812501 Q 21.15971411132813 1.5307536621093751 21.23228649902344 1.5576877441406252 Q 21.304858886718755 1.5846218261718752 21.385661132812505 1.5995852050781252 Q 21.466463378906255 1.6145485839843752 21.55474731445313 1.6197857666015627 Q 21.643031250000007 1.6250229492187502 21.73730053710938 1.6250229492187502 Q 21.849525878906256 1.6250229492187502 21.95352136230469 1.6138004150390628 Q 22.05751684570313 1.6025778808593751 22.13757092285157 1.5748956298828127 Q 22.217625000000005 1.54721337890625 22.265507812500005 1.5015750732421878 Q 22.313390625000004 1.4559367675781252 22.313390625000004 1.3856088867187502" fill="url(#gradient-d46499e1-98c5-4174-8fe9-d0a0364f043f)" fill-rule="nonzero"></path></g><g></g></g><defs><clipPath id="SvgjsClipPath37571"><path d=" M 6.135878943261335 -5.233329142185562 h 10.325936937696083 v 4.963329142185563 h -10.325936937696083 Z"></path></clipPath><clipPath id="SvgjsClipPath37566f38fbc06-3bce-4f3d-abcd-0159bebd247d"><path d=" M 6.135878943261335 -5.233329142185562 L 16.461815880957417 -5.233329142185562 L 16.461815880957417 -0.2699999999999996 L 6.135878943261335 -0.2699999999999996 Z"></path></clipPath><linearGradient id="gradient-82efe8fb-26cc-4088-b2a3-313581e0be36_0" x1="0" x2="0" y1="0" y2="1"><stop stop-color="#64c6c4" offset="0"></stop><stop stop-color="#212245" offset="1"></stop></linearGradient><linearGradient id="gradient-82efe8fb-26cc-4088-b2a3-313581e0be36_1" x1="0" x2="0" y1="0" y2="1"><stop stop-color="#5eb9ba" offset="0"></stop><stop stop-color="#55a3a9" offset="1"></stop></linearGradient><linearGradient id="gradient-82efe8fb-26cc-4088-b2a3-313581e0be36_2" x1="0" x2="0" y1="0" y2="1"><stop stop-color="#417182" offset="0"></stop><stop stop-color="#37586f" offset="1"></stop></linearGradient><linearGradient id="gradient-82efe8fb-26cc-4088-b2a3-313581e0be36_3" x1="0" x2="0" y1="0" y2="1"><stop stop-color="#3a5f74" offset="0"></stop><stop stop-color="#36576e" offset="1"></stop></linearGradient><linearGradient id="gradient-82efe8fb-26cc-4088-b2a3-313581e0be36_4" x1="0" x2="0" y1="0" y2="1"><stop stop-color="#4e919b" offset="0"></stop><stop stop-color="#3d677b" offset="1"></stop></linearGradient><linearGradient id="gradient-82efe8fb-26cc-4088-b2a3-313581e0be36_5" x1="0" x2="0" y1="0" y2="1"><stop stop-color="#5199a1" offset="0"></stop><stop stop-color="#4d8e99" offset="1"></stop></linearGradient><linearGradient id="gradient-d46499e1-98c5-4174-8fe9-d0a0364f043f" y1="0" x1="0" y2="0" x2="1"><stop stop-color="#212245" offset="0"></stop><stop stop-color="#64c6c4" offset="1"></stop></linearGradient></defs></svg>